<svg xmlns="http://www.w3.org/2000/svg" xmlns:svgjs="http://svgjs.com/svgjs" xmlns:xlink="http://www.w3.org/1999/xlink" id="freepik_stories-people-talking" class="animated" version="1.1" viewBox="0 0 500 500"><style>@keyframes slideRight{0%{opacity:0;transform:translateX(30px)}}@keyframes lightSpeedLeft{60%{transform:skewX(-10deg);opacity:1}80%{transform:skewX(2deg)}}@keyframes fadeIn{0%{opacity:0}}@keyframes lightSpeedRight{60%{transform:skewX(10deg);opacity:1}80%{transform:skewX(-2deg)}}@keyframes slideUp{0%{opacity:0;transform:translateY(30px)}}@keyframes slideLeft{0%{opacity:0;transform:translateX(-30px)}}@keyframes zoomOut{0%{opacity:0;transform:scale(1.5)}}svg#freepik_stories-people-talking:not(.animated) .animable{opacity:0}svg#freepik_stories-people-talking.animated #freepik--Shadow--inject-1,svg#freepik_stories-people-talking.animated #freepik--background-complete--inject-1{animation:1s 1 forwards cubic-bezier(.36,-.01,.5,1.38) slideRight;animation-delay:0s}svg#freepik_stories-people-talking.animated #freepik--plant-2--inject-1{animation:1s 1 forwards cubic-bezier(.36,-.01,.5,1.38) lightSpeedLeft;animation-delay:0s}svg#freepik_stories-people-talking.animated #freepik--plant-1--inject-1{animation:1s 1 forwards cubic-bezier(.36,-.01,.5,1.38) fadeIn;animation-delay:0s}svg#freepik_stories-people-talking.animated #freepik--speech-bubble-3--inject-1{animation:1s 1 forwards cubic-bezier(.36,-.01,.5,1.38) lightSpeedRight;animation-delay:0s}svg#freepik_stories-people-talking.animated #freepik--speech-bubble-2--inject-1{animation:1s 1 forwards cubic-bezier(.36,-.01,.5,1.38) slideUp;animation-delay:0s}svg#freepik_stories-people-talking.animated #freepik--speech-bubble-1--inject-1{animation:1s 1 forwards cubic-bezier(.36,-.01,.5,1.38) fadeIn;animation-delay:0s}svg#freepik_stories-people-talking.animated #freepik--character-3--inject-1{animation:1s 1 forwards cubic-bezier(.36,-.01,.5,1.38) slideLeft;animation-delay:0s}svg#freepik_stories-people-talking.animated #freepik--character-2--inject-1{animation:1s 1 forwards cubic-bezier(.36,-.01,.5,1.38) lightSpeedLeft;animation-delay:0s}svg#freepik_stories-people-talking.animated #freepik--character-1--inject-1{animation:1s 1 forwards cubic-bezier(.36,-.01,.5,1.38) zoomOut;animation-delay:0s}</style><g style="transform-origin:250px 228.23px" id="freepik--background-complete--inject-1" class="animable"><rect id="elu4xbppt7hqt" width="500" height=".25" y="382.4" class="animable" style="fill:#ebebeb;transform-origin:250px 382.525px"/><rect id="el2rcahahbfxq" width="33.12" height=".25" x="416.78" y="398.49" class="animable" style="fill:#ebebeb;transform-origin:433.34px 398.615px"/><rect id="elms2qemvdatq" width="8.69" height=".25" x="322.53" y="401.21" class="animable" style="fill:#ebebeb;transform-origin:326.875px 401.335px"/><rect id="eldpdgqrw0g4k" width="19.19" height=".25" x="396.59" y="389.21" class="animable" style="fill:#ebebeb;transform-origin:406.185px 389.335px"/><rect id="el506vyutl4jd" width="43.19" height=".25" x="52.46" y="390.89" class="animable" style="fill:#ebebeb;transform-origin:74.055px 391.015px"/><rect id="elnh8zax46hl" width="6.33" height=".25" x="104.56" y="390.89" class="animable" style="fill:#ebebeb;transform-origin:107.725px 391.015px"/><rect id="elwo9x2wjetfo" width="93.68" height=".25" x="131.47" y="395.11" class="animable" style="fill:#ebebeb;transform-origin:178.31px 395.235px"/><path id="el9bnb19w38r" d="M237,337.8H43.91a5.71,5.71,0,0,1-5.7-5.71V60.66A5.71,5.71,0,0,1,43.91,55H237a5.71,5.71,0,0,1,5.71,5.71V332.09A5.71,5.71,0,0,1,237,337.8ZM43.91,55.2a5.46,5.46,0,0,0-5.45,5.46V332.09a5.46,5.46,0,0,0,5.45,5.46H237a5.47,5.47,0,0,0,5.46-5.46V60.66A5.47,5.47,0,0,0,237,55.2Z" class="animable" style="fill:#ebebeb;transform-origin:140.46px 196.4px"/><path id="elmjtzvyiper" d="M453.31,337.8H260.21a5.72,5.72,0,0,1-5.71-5.71V60.66A5.72,5.72,0,0,1,260.21,55h193.1A5.71,5.71,0,0,1,459,60.66V332.09A5.71,5.71,0,0,1,453.31,337.8ZM260.21,55.2a5.47,5.47,0,0,0-5.46,5.46V332.09a5.47,5.47,0,0,0,5.46,5.46h193.1a5.47,5.47,0,0,0,5.46-5.46V60.66a5.47,5.47,0,0,0-5.46-5.46Z" class="animable" style="fill:#ebebeb;transform-origin:356.75px 196.4px"/><rect id="elamh7t84p8wa" width="68.52" height="192.4" x="98.3" y="94.87" class="animable" style="fill:#fafafa;transform-origin:132.56px 191.07px"/><polygon id="el6d1nrb69mfr" points="156.62 94.87 152.61 94.87 128.72 287.27 132.72 287.27 156.62 94.87" class="animable" style="fill:#f5f5f5;transform-origin:142.67px 191.07px"/><rect id="elmci95xnev5m" width="67.74" height="2.05" x="97.87" y="95.76" class="animable" style="fill:#e0e0e0;transform-origin:131.74px 96.785px"/><rect id="elemslegwqdfq" width="67.74" height="4.38" x="97.87" y="285.23" class="animable" style="fill:#ebebeb;transform-origin:131.74px 287.42px"/><rect id="elodmnxecwwe" width="64.01" height=".19" x="100.47" y="289.42" class="animable" style="fill:#ebebeb;transform-origin:132.475px 289.515px"/><polygon id="elro1eqnb65r" points="100.47 95.77 164.48 95.77 164.48 289.42 168.31 289.42 168.31 92.89 96.64 92.89 96.64 289.42 100.47 289.42 100.47 95.77" class="animable" style="fill:#ebebeb;transform-origin:132.475px 191.155px"/><rect id="elf3d5nkoerl6" width="68.52" height="192.4" x="174.55" y="94.87" class="animable" style="fill:#fafafa;transform-origin:208.81px 191.07px"/><polygon id="el8s7xxxelxh8" points="224.06 94.87 202.21 94.87 178.32 287.27 200.16 287.27 224.06 94.87" class="animable" style="fill:#f5f5f5;transform-origin:201.19px 191.07px"/><rect id="el3jzpy6ofppm" width="69.66" height="2.05" x="174.11" y="95.76" class="animable" style="fill:#e0e0e0;transform-origin:208.94px 96.785px"/><rect id="elbeyezxtzd2e" width="69.66" height="4.38" x="174.11" y="285.23" class="animable" style="fill:#ebebeb;transform-origin:208.94px 287.42px"/><rect id="el8edoorwe0uv" width="64.01" height=".19" x="176.71" y="289.42" class="animable" style="fill:#ebebeb;transform-origin:208.715px 289.515px"/><polygon id="eljiun5hyyhqa" points="176.71 95.77 240.72 95.77 240.72 289.42 244.56 289.42 244.56 92.89 172.88 92.89 172.88 289.42 176.71 289.42 176.71 95.77" class="animable" style="fill:#ebebeb;transform-origin:208.72px 191.155px"/><rect id="elfcbv4lyjsco" width="66.59" height="192.4" x="250.79" y="94.87" class="animable" style="fill:#fafafa;transform-origin:284.085px 191.07px"/><polygon id="elnjkdd0mi67b" points="288.52 94.87 284.51 94.87 260.62 287.27 264.62 287.27 288.52 94.87" class="animable" style="fill:#f5f5f5;transform-origin:274.57px 191.07px"/><rect id="el93499lhrvzn" width="67.74" height="2.05" x="250.35" y="95.76" class="animable" style="fill:#e0e0e0;transform-origin:284.22px 96.785px"/><rect id="elrl0axpuhuc" width="67.74" height="4.38" x="250.35" y="285.23" class="animable" style="fill:#ebebeb;transform-origin:284.22px 287.42px"/><rect id="elwory0fuz0s" width="64.01" height=".19" x="252.95" y="289.42" class="animable" style="fill:#ebebeb;transform-origin:284.955px 289.515px"/><polygon id="elz4rm423jukh" points="252.95 95.77 316.96 95.77 316.96 289.42 320.8 289.42 320.8 92.89 249.12 92.89 249.12 289.42 252.95 289.42 252.95 95.77" class="animable" style="fill:#ebebeb;transform-origin:284.96px 191.155px"/><rect id="eli9f4okv8xdd" width="68.52" height="192.4" x="327.03" y="94.87" class="animable" style="fill:#fafafa;transform-origin:361.29px 191.07px"/><polygon id="elt6fgsattajk" points="388.84 94.87 367 94.87 343.1 287.27 364.94 287.27 388.84 94.87" class="animable" style="fill:#f5f5f5;transform-origin:365.97px 191.07px"/><rect id="elohe3j3sugnm" width="67.74" height="2.05" x="326.59" y="95.76" class="animable" style="fill:#e0e0e0;transform-origin:360.46px 96.785px"/><rect id="eltiqsdq04mur" width="67.74" height="4.38" x="326.59" y="285.23" class="animable" style="fill:#ebebeb;transform-origin:360.46px 287.42px"/><polygon id="el5uaf94wc7ms" points="329.2 95.77 393.21 95.77 393.21 289.42 397.04 289.42 397.04 92.89 325.36 92.89 325.36 289.42 329.2 289.42 329.2 95.77" class="animable" style="fill:#ebebeb;transform-origin:361.2px 191.155px"/><rect id="eli8mfas6xf6" width="64.01" height=".19" x="329.2" y="289.42" class="animable" style="fill:#ebebeb;transform-origin:361.205px 289.515px"/><rect id="eleqhs6sqy1na" width="29.75" height="51.43" x="120.68" y="233.81" class="animable" style="fill:#ebebeb;transform-origin:135.555px 259.525px"/><polygon id="elvcjf9f7o7z" points="144.72 226.62 144.72 239.52 142.37 239.52 128.74 239.52 126.4 239.52 126.4 226.62 144.72 226.62" class="animable" style="fill:#ebebeb;transform-origin:135.56px 233.07px"/><g id="ely726bvm73vh"><rect style="fill:#fafafa;transform-origin:146.625px 237.615px;transform:rotate(180deg)" width="3.81" height="3.81" x="144.72" y="235.71" class="animable"/></g><g id="els3dujw2omjo"><rect style="fill:#fafafa;transform-origin:139.245px 237.615px;transform:rotate(180deg)" width="3.81" height="3.81" x="137.34" y="235.71" class="animable"/></g><g id="elpi3mwyofyac"><rect style="fill:#fafafa;transform-origin:131.865px 237.615px;transform:rotate(180deg)" width="3.81" height="3.81" x="129.96" y="235.71" class="animable"/></g><g id="eluhk92kjr5ye"><rect style="fill:#f0f0f0;transform-origin:124.495px 237.615px;transform:rotate(180deg)" width="3.81" height="3.81" x="122.59" y="235.71" class="animable"/></g><g id="elzopc78bl5ls"><rect style="fill:#f0f0f0;transform-origin:146.625px 244.535px;transform:rotate(180deg)" width="3.81" height="3.81" x="144.72" y="242.63" class="animable"/></g><g id="elfv92a5h8vwn"><rect style="fill:#f0f0f0;transform-origin:139.245px 244.535px;transform:rotate(180deg)" width="3.81" height="3.81" x="137.34" y="242.63" class="animable"/></g><g id="el4tl59vx6vaf"><rect style="fill:#fafafa;transform-origin:131.865px 244.535px;transform:rotate(180deg)" width="3.81" height="3.81" x="129.96" y="242.63" class="animable"/></g><g id="elg65brmp0tzf"><rect style="fill:#fafafa;transform-origin:124.495px 244.535px;transform:rotate(180deg)" width="3.81" height="3.81" x="122.59" y="242.63" class="animable"/></g><g id="eliu3gk4etk3d"><rect style="fill:#f0f0f0;transform-origin:146.625px 251.455px;transform:rotate(180deg)" width="3.81" height="3.81" x="144.72" y="249.55" class="animable"/></g><g id="el2x54o1disfv"><rect style="fill:#fafafa;transform-origin:139.245px 251.455px;transform:rotate(180deg)" width="3.81" height="3.81" x="137.34" y="249.55" class="animable"/></g><g id="elcqiwzyfpr3"><rect style="fill:#fafafa;transform-origin:131.865px 251.455px;transform:rotate(180deg)" width="3.81" height="3.81" x="129.96" y="249.55" class="animable"/></g><g id="elm2n8pxx8oys"><rect style="fill:#fafafa;transform-origin:139.245px 231.635px;transform:rotate(180deg)" width="3.81" height="3.81" x="137.34" y="229.73" class="animable"/></g><g id="eljlbgueg3xsn"><rect style="fill:#f0f0f0;transform-origin:131.865px 231.635px;transform:rotate(180deg)" width="3.81" height="3.81" x="129.96" y="229.73" class="animable"/></g><g id="eliipxvomdbx"><rect style="fill:#f0f0f0;transform-origin:124.495px 251.455px;transform:rotate(180deg)" width="3.81" height="3.81" x="122.59" y="249.55" class="animable"/></g><g id="el4axcvm482yv"><rect style="fill:#fafafa;transform-origin:146.625px 258.375px;transform:rotate(180deg)" width="3.81" height="3.81" x="144.72" y="256.47" class="animable"/></g><g id="elc509ciwyh4u"><rect style="fill:#f0f0f0;transform-origin:139.245px 258.375px;transform:rotate(180deg)" width="3.81" height="3.81" x="137.34" y="256.47" class="animable"/></g><g id="elykr92csm5gb"><rect style="fill:#f0f0f0;transform-origin:131.865px 258.375px;transform:rotate(180deg)" width="3.81" height="3.81" x="129.96" y="256.47" class="animable"/></g><g id="eldv4cxhr2joc"><rect style="fill:#fafafa;transform-origin:124.495px 258.375px;transform:rotate(180deg)" width="3.81" height="3.81" x="122.59" y="256.47" class="animable"/></g><g id="elsz1xxj8epys"><rect style="fill:#f0f0f0;transform-origin:146.625px 265.295px;transform:rotate(180deg)" width="3.81" height="3.81" x="144.72" y="263.39" class="animable"/></g><g id="elzvpuemdfd6h"><rect style="fill:#fafafa;transform-origin:139.245px 265.295px;transform:rotate(180deg)" width="3.81" height="3.81" x="137.34" y="263.39" class="animable"/></g><g id="elt5gwfrqkk1h"><rect style="fill:#fafafa;transform-origin:131.865px 265.295px;transform:rotate(180deg)" width="3.81" height="3.81" x="129.96" y="263.39" class="animable"/></g><g id="el3iua8mqq7wx"><rect style="fill:#f0f0f0;transform-origin:124.495px 265.295px;transform:rotate(180deg)" width="3.81" height="3.81" x="122.59" y="263.39" class="animable"/></g><g id="el1c176p605je"><rect style="fill:#f0f0f0;transform-origin:146.625px 272.215px;transform:rotate(180deg)" width="3.81" height="3.81" x="144.72" y="270.31" class="animable"/></g><g id="el25o7rdt95x7"><rect style="fill:#fafafa;transform-origin:139.245px 272.215px;transform:rotate(180deg)" width="3.81" height="3.81" x="137.34" y="270.31" class="animable"/></g><g id="el19n2bqnr51c"><rect style="fill:#f0f0f0;transform-origin:131.865px 272.215px;transform:rotate(180deg)" width="3.81" height="3.81" x="129.96" y="270.31" class="animable"/></g><g id="elhit7yyu6pp8"><rect style="fill:#fafafa;transform-origin:124.495px 272.215px;transform:rotate(180deg)" width="3.81" height="3.81" x="122.59" y="270.31" class="animable"/></g><g id="elxtyq8jtklz"><rect style="fill:#fafafa;transform-origin:146.625px 279.135px;transform:rotate(180deg)" width="3.81" height="3.81" x="144.72" y="277.23" class="animable"/></g><g id="el88wrjlx2uqp"><rect style="fill:#fafafa;transform-origin:139.245px 279.135px;transform:rotate(180deg)" width="3.81" height="3.81" x="137.34" y="277.23" class="animable"/></g><g id="elapkfp76a4kk"><rect style="fill:#f0f0f0;transform-origin:131.865px 279.135px;transform:rotate(180deg)" width="3.81" height="3.81" x="129.96" y="277.23" class="animable"/></g><g id="elo9a39ph7hdh"><rect style="fill:#f0f0f0;transform-origin:124.495px 279.135px;transform:rotate(180deg)" width="3.81" height="3.81" x="122.59" y="277.23" class="animable"/></g><rect id="elstzihmqmaqc" width="26.65" height="32.7" x="333.3" y="252.54" class="animable" style="fill:#f0f0f0;transform-origin:346.625px 268.89px"/><polygon id="elu17sdw7ghvb" points="335.62 256.17 341.82 256.17 343.53 256.17 345.23 256.17 345.23 259.58 343.53 259.58 341.82 259.58 335.62 259.58 335.62 256.17" class="animable" style="fill:#e6e6e6;transform-origin:340.425px 257.875px"/><polygon id="elv94xllj7h58" points="335.62 262.78 341.82 262.78 343.53 262.78 345.23 262.78 345.23 266.19 343.53 266.19 341.82 266.19 335.62 266.19 335.62 262.78" class="animable" style="fill:#fafafa;transform-origin:340.425px 264.485px"/><polygon id="el9mmcxf1fj95" points="335.62 269.38 341.82 269.38 343.53 269.38 345.23 269.38 345.23 272.8 343.53 272.8 341.82 272.8 335.62 272.8 335.62 269.38" class="animable" style="fill:#e6e6e6;transform-origin:340.425px 271.09px"/><polygon id="elpk2a4bsp8s" points="335.62 275.99 341.82 275.99 344.46 275.99 345.23 275.99 345.23 279.4 344.46 279.4 341.82 279.4 335.62 279.4 335.62 275.99" class="animable" style="fill:#fafafa;transform-origin:340.425px 277.695px"/><polygon id="elrl0qkgmukqq" points="348.02 256.17 354.22 256.17 355.92 256.17 357.63 256.17 357.63 259.58 355.92 259.58 354.22 259.58 348.02 259.58 348.02 256.17" class="animable" style="fill:#fafafa;transform-origin:352.825px 257.875px"/><polygon id="elfqc1un7z5dl" points="348.02 262.78 354.22 262.78 356.62 262.78 357.63 262.78 357.63 266.19 356.62 266.19 354.22 266.19 348.02 266.19 348.02 262.78" class="animable" style="fill:#fafafa;transform-origin:352.825px 264.485px"/><polygon id="elvm5rxughom" points="348.02 269.38 354.22 269.38 355.92 269.38 357.63 269.38 357.63 272.8 355.92 272.8 354.22 272.8 348.02 272.8 348.02 269.38" class="animable" style="fill:#e6e6e6;transform-origin:352.825px 271.09px"/><polygon id="eldgee0uutxx5" points="348.02 275.99 354.22 275.99 355.92 275.99 357.63 275.99 357.63 279.4 355.92 279.4 354.22 279.4 348.02 279.4 348.02 275.99" class="animable" style="fill:#fafafa;transform-origin:352.825px 277.695px"/><rect id="elt03jh5t063" width="24.21" height="20.32" x="207.34" y="264.92" class="animable" style="fill:#f0f0f0;transform-origin:219.445px 275.08px"/><g id="elrz6vphr4d9e"><rect style="fill:#fafafa;transform-origin:228.45px 269px;transform:rotate(180deg)" width="3.1" height="3.1" x="226.9" y="267.45" class="animable"/></g><g id="el90hoz417boe"><rect style="fill:#fafafa;transform-origin:222.45px 269px;transform:rotate(180deg)" width="3.1" height="3.1" x="220.9" y="267.45" class="animable"/></g><g id="el2d0ezbi8ymj"><rect style="fill:#fafafa;transform-origin:216.45px 269px;transform:rotate(180deg)" width="3.1" height="3.1" x="214.9" y="267.45" class="animable"/></g><g id="elfegb3vi1kmg"><rect style="fill:#fafafa;transform-origin:210.44px 269px;transform:rotate(180deg)" width="3.1" height="3.1" x="208.89" y="267.45" class="animable"/></g><g id="el9uqpkza59sd"><rect style="fill:#fafafa;transform-origin:228.45px 274.64px;transform:rotate(180deg)" width="3.1" height="3.1" x="226.9" y="273.09" class="animable"/></g><g id="elzwq5zcdtilh"><rect style="fill:#fafafa;transform-origin:222.45px 274.64px;transform:rotate(180deg)" width="3.1" height="3.1" x="220.9" y="273.09" class="animable"/></g><g id="elrm8cztwu8en"><rect style="fill:#fafafa;transform-origin:216.45px 274.64px;transform:rotate(180deg)" width="3.1" height="3.1" x="214.9" y="273.09" class="animable"/></g><g id="eltu5mb7e00ql"><rect style="fill:#e6e6e6;transform-origin:210.44px 274.64px;transform:rotate(180deg)" width="3.1" height="3.1" x="208.89" y="273.09" class="animable"/></g><g id="elerpg3t4dfzm"><rect style="fill:#e6e6e6;transform-origin:228.45px 280.27px;transform:rotate(180deg)" width="3.1" height="3.1" x="226.9" y="278.72" class="animable"/></g><g id="elmwmq7ml45ys"><rect style="fill:#e6e6e6;transform-origin:222.45px 280.27px;transform:rotate(180deg)" width="3.1" height="3.1" x="220.9" y="278.72" class="animable"/></g><g id="elktlsslwwi6n"><rect style="fill:#fafafa;transform-origin:216.45px 280.27px;transform:rotate(180deg)" width="3.1" height="3.1" x="214.9" y="278.72" class="animable"/></g><g id="elwg3l7gkq60o"><rect style="fill:#e6e6e6;transform-origin:210.44px 280.27px;transform:rotate(180deg)" width="3.1" height="3.1" x="208.89" y="278.72" class="animable"/></g><rect id="el7xco5ynye" width="24.21" height="35.34" x="179.85" y="249.9" class="animable" style="fill:#f0f0f0;transform-origin:191.955px 267.57px"/><rect id="elnzk9sa9el9" width="9.1" height="8.73" x="193.41" y="251.45" class="animable" style="fill:#fafafa;transform-origin:197.96px 255.815px"/><rect id="ele5lr3fqbfs" width="9.1" height="8.73" x="181.4" y="251.45" class="animable" style="fill:#fafafa;transform-origin:185.95px 255.815px"/><rect id="elcmqmf9zi3a9" width="9.1" height="8.73" x="193.41" y="262.71" class="animable" style="fill:#fafafa;transform-origin:197.96px 267.075px"/><rect id="ele6f0czu68o" width="9.1" height="8.73" x="181.4" y="262.71" class="animable" style="fill:#fafafa;transform-origin:185.95px 267.075px"/><rect id="eli5jrnp3lr6c" width="9.1" height="8.73" x="193.41" y="273.98" class="animable" style="fill:#fafafa;transform-origin:197.96px 278.345px"/><rect id="ela09ocboznv4" width="9.1" height="8.73" x="181.4" y="273.98" class="animable" style="fill:#fafafa;transform-origin:185.95px 278.345px"/><path id="elhdti4js9qdp" d="M325.39,375.92H304l11.26-91.72a8.18,8.18,0,0,1,7.89-7H416.6l-13.71,98.75Z" class="animable" style="fill:#f5f5f5;transform-origin:360.3px 326.575px"/><path id="elczy4adhol2c" d="M393.33,375.92h21.43L426,284.2a6.1,6.1,0,0,0-6.17-7h-7.36a8.17,8.17,0,0,0-7.89,7Z" class="animable" style="fill:#f0f0f0;transform-origin:409.698px 326.559px"/><path id="elxs6zwx4o04h" d="M385.44,375.81l3.88-44.36a4.24,4.24,0,0,1,3.68-3.83l1.6-.2a5.68,5.68,0,0,0,4.93-5.13l.71-8.09a5.68,5.68,0,0,0-5.65-6.17h35.8A5.68,5.68,0,0,1,436,314.2l-.71,8.09a5.68,5.68,0,0,1-4.93,5.13l-1.6.2a4.24,4.24,0,0,0-3.68,3.83l-3.88,44.36a6.26,6.26,0,0,1-6.24,5.72H379.2A6.26,6.26,0,0,0,385.44,375.81Z" class="animable" style="fill:#e6e6e6;transform-origin:407.611px 344.78px"/><path id="elmal4lqhff7s" d="M286.92,320.34A13.5,13.5,0,0,0,273.48,308h31.17a13.5,13.5,0,0,1,13.44,12.31l3.07,35.17H290Z" class="animable" style="fill:#e6e6e6;transform-origin:297.32px 331.74px"/><path id="elj2ig9z356js" d="M259.64,308h13.84a13.5,13.5,0,0,1,13.44,12.31L290,355.51h74.24l3.07-35.17A13.5,13.5,0,0,1,380.74,308h13.85a5.68,5.68,0,0,1,5.65,6.17l-.71,8.09a5.68,5.68,0,0,1-4.93,5.13l-1.6.2a4.24,4.24,0,0,0-3.68,3.83l-3.88,44.36a6.26,6.26,0,0,1-6.24,5.72H275a6.26,6.26,0,0,1-6.24-5.72l-3.88-44.36a4.23,4.23,0,0,0-3.68-3.83l-1.59-.2a5.68,5.68,0,0,1-4.94-5.13L254,314.2A5.68,5.68,0,0,1,259.64,308Z" class="animable" style="fill:#f0f0f0;transform-origin:327.119px 344.75px"/><path id="elp5fpmwqil1l" d="M155.24,302.22H57.85a6.68,6.68,0,0,0,6.39,6.67c10.47.48,26.57,2.13,31.67,7.92,9.52,10.8,8.6,48.72-2.8,57.5-3.58,2.75-14,8.22-14,8.22H134s-9.74-5.58-13.13-8.22c-11.33-8.85-11.66-46.75-2.1-57.5,4.91-5.51,20-7.29,30.12-7.85A6.74,6.74,0,0,0,155.24,302.22Z" class="animable" style="fill:#f5f5f5;transform-origin:106.545px 342.375px"/><path id="elslzo5yhi3u" d="M69.92,309.25c9.89.79,21.75,2.75,26,7.56a19.14,19.14,0,0,1,3.22,5.58h16.36a19.66,19.66,0,0,1,3.27-5.58c4.26-4.79,16.22-6.76,25.92-7.56Z" class="animable" style="fill:#e6e6e6;transform-origin:107.305px 315.82px"/><polygon id="elvdc1b66zbcs" points="113.76 302.27 112.43 287.13 131.63 287.13 132.96 302.27 113.76 302.27" class="animable" style="fill:#ebebeb;transform-origin:122.695px 294.7px"/><polygon id="elzpljs0va4k" points="113.76 302.27 112.43 287.13 111.4 287.13 112.72 302.27 113.76 302.27" class="animable" style="fill:#e0e0e0;transform-origin:112.58px 294.7px"/><polygon id="elvjuencfzy7e" points="115.58 300.73 114.53 288.68 129.81 288.68 130.86 300.73 115.58 300.73" class="animable" style="fill:#f0f0f0;transform-origin:122.695px 294.705px"/><polygon id="ellyl14c8t42b" points="116.75 299.73 115.87 289.67 128.64 289.67 129.52 299.73 116.75 299.73" class="animable" style="fill:#fafafa;transform-origin:122.695px 294.7px"/><polygon id="elf81bw6f7fdg" points="107.53 302.22 88.25 302.22 90.39 277.77 109.67 277.77 107.53 302.22" class="animable" style="fill:#e6e6e6;transform-origin:98.96px 289.995px"/><polygon id="el20nl00s0efi" points="107.53 302.22 108.45 302.22 110.59 277.77 109.67 277.77 107.53 302.22" class="animable" style="fill:#e0e0e0;transform-origin:109.06px 289.995px"/><polygon id="elb9rzkq2do3f" points="105.78 299.73 90.43 299.73 92.14 280.26 107.49 280.26 105.78 299.73" class="animable" style="fill:#f0f0f0;transform-origin:98.96px 289.995px"/><polygon id="elgrg3b30hiqf" points="104.66 298.13 91.83 298.13 93.26 281.86 106.08 281.86 104.66 298.13" class="animable" style="fill:#fafafa;transform-origin:98.955px 289.995px"/><path id="el7xvypqndywn" d="M98.18,289.18h0a2.24,2.24,0,0,0,3.16,0h0a2.24,2.24,0,0,0,0-3.16h0a2.24,2.24,0,0,0-3.16,0h0A2.24,2.24,0,0,0,98.18,289.18Z" class="animable" style="fill:#ebebeb;transform-origin:99.76px 287.6px"/><path id="elw8q576coyr" d="M99.13,291.91h0a1.63,1.63,0,0,0-2.31,0h0A1.63,1.63,0,0,0,98,294.7h0A1.63,1.63,0,0,0,99.13,291.91Z" class="animable" style="fill:#f0f0f0;transform-origin:97.9749px 293.065px"/></g><g style="transform-origin:250px 416.24px" id="freepik--Shadow--inject-1" class="animable"><ellipse style="fill:#f5f5f5;transform-origin:250px 416.24px" id="freepik--path--inject-1" cx="250" cy="416.24" class="animable" rx="193.89" ry="11.32"/></g><g style="transform-origin:412.951px 376.733px" id="freepik--plant-2--inject-1" class="animable"><path id="elwjq1dx8c0pj" d="M406.22,347.81c.18,1.29-3.32,2.14-6.18,2.62.24,2.34,1.8,4.71,3.95,6.93,2.71-1.53,6.58-3.55,7.29-3.06s-3.18,3.11-5.66,4.61a50.43,50.43,0,0,0,5.61,4.25c1.22-1.13,2.64-2.13,3.49-1.59s.64,2.32.21,3.88c2.94,1.72,5.15,2.77,5.15,2.77a59.21,59.21,0,0,0,2-8.37c-.15-.3-.29-.59-.43-.91-.48-1.1,0-1.56.77-1.72a29.69,29.69,0,0,0,.05-6c-3.34-.7-7.39-2-5.87-4,.91-1.2,2.59-1.34,4.34-1a7.73,7.73,0,0,0-.83-1.12c-6.07-6.69-10.31,0-10.31,0-3.53-2.94-8.49-2.15-9.56,2.45C402.2,347,406,346.22,406.22,347.81Z" class="animable" style="fill:#407bff;transform-origin:411.319px 355.173px"/><g id="elkuq8vnxis5g"><path style="fill:#fff;isolation:isolate;opacity:.3;transform-origin:411.319px 355.173px" d="M406.22,347.81c.18,1.29-3.32,2.14-6.18,2.62.24,2.34,1.8,4.71,3.95,6.93,2.71-1.53,6.58-3.55,7.29-3.06s-3.18,3.11-5.66,4.61a50.43,50.43,0,0,0,5.61,4.25c1.22-1.13,2.64-2.13,3.49-1.59s.64,2.32.21,3.88c2.94,1.72,5.15,2.77,5.15,2.77a59.21,59.21,0,0,0,2-8.37c-.15-.3-.29-.59-.43-.91-.48-1.1,0-1.56.77-1.72a29.69,29.69,0,0,0,.05-6c-3.34-.7-7.39-2-5.87-4,.91-1.2,2.59-1.34,4.34-1a7.73,7.73,0,0,0-.83-1.12c-6.07-6.69-10.31,0-10.31,0-3.53-2.94-8.49-2.15-9.56,2.45C402.2,347,406,346.22,406.22,347.81Z" class="animable"/></g><path id="elrafml8zecee" d="M413.79,397l-.87-.07c0-.45,3.59-45.26-6.46-49.49a3.43,3.43,0,0,0-3,.08c-3.63,1.89-5.37,9.74-5.39,9.82l-.86-.19c.07-.34,1.85-8.33,5.84-10.41a4.33,4.33,0,0,1,3.8-.11C417.44,351.09,414,395.12,413.79,397Z" class="animable" style="fill:#407bff;transform-origin:405.849px 371.622px"/><path id="el6u25awgrzkg" d="M415.06,396c-.18-2-4.28-49.43,3.39-54.46,1.84-1.2,3.48-1.46,4.88-.76,3.63,1.83,4.1,9.59,4.12,9.92l-.88,0c0-.07-.46-7.57-3.64-9.17-1.09-.55-2.44-.32-4,.71-7.24,4.74-3.05,53.15-3,53.64Z" class="animable" style="fill:#407bff;transform-origin:420.628px 368.198px"/><path id="elhc4elufxh8m" d="M416.22,399.85c-.06-1.54-1.33-37.83,5.66-41a4.88,4.88,0,0,1,4.16,0c4.8,2.11,7.76,11.05,7.88,11.43l-.83.27c0-.09-3-8.95-7.4-10.9a4,4,0,0,0-3.44,0c-5.36,2.44-5.54,29.83-5.16,40.18Z" class="animable" style="fill:#407bff;transform-origin:425.006px 379.117px"/><path id="el44eisjrsliz" d="M414.44,398.19l-.88-.1c1.24-10.8,3.59-39.58-.26-43a1.52,1.52,0,0,0-1.57-.49c-2.58,1-4.15,10.35-4.54,13.88l-.87-.1c.15-1.35,1.56-13.24,5.09-14.6a2.34,2.34,0,0,1,2.48.65C418.86,358.86,414.62,396.59,414.44,398.19Z" class="animable" style="fill:#407bff;transform-origin:411.308px 375.924px"/><polygon id="el8vi6arc5epr" points="399.78 377.72 431.34 377.72 428.7 413.07 402.41 413.07 399.78 377.72" class="animable" style="fill:#407bff;transform-origin:415.56px 395.395px"/><g id="elem0mck0a0m8"><polygon style="fill:#fff;isolation:isolate;opacity:.2;transform-origin:420.35px 395.395px" points="409.36 377.72 410.24 413.07 428.7 413.07 431.34 377.72 409.36 377.72" class="animable"/></g><path id="eldu0wf8bym2" d="M404.08,364.74c-.33.86-2.78.19-4.71-.5a8.81,8.81,0,0,0,.06,5.63c2.2,0,5.27.07,5.55.62s-3,.82-5.07.9a35.5,35.5,0,0,0,2,4.54c1.14-.28,2.36-.41,2.69.21s-.39,1.65-1.2,2.47c1.23,2.07,2.23,3.47,2.23,3.47a42.78,42.78,0,0,0,4.09-4.48c0-.24,0-.47,0-.71.08-.84.53-1,1.07-.8a20.34,20.34,0,0,0,2.09-3.7c-1.81-1.58-3.87-3.77-2.25-4.48,1-.43,2.06.06,3,.85a5.37,5.37,0,0,0-.13-1c-1.45-6.21-6.36-3.53-6.36-3.53-1.16-3-4.49-4.24-6.73-1.77C401.89,362.85,404.48,363.68,404.08,364.74Z" class="animable" style="fill:#407bff;transform-origin:406.284px 371.612px"/><g id="el8o8a1ex994g"><path style="fill:#fff;isolation:isolate;opacity:.3;transform-origin:406.284px 371.612px" d="M404.08,364.74c-.33.86-2.78.19-4.71-.5a8.81,8.81,0,0,0,.06,5.63c2.2,0,5.27.07,5.55.62s-3,.82-5.07.9a35.5,35.5,0,0,0,2,4.54c1.14-.28,2.36-.41,2.69.21s-.39,1.65-1.2,2.47c1.23,2.07,2.23,3.47,2.23,3.47a42.78,42.78,0,0,0,4.09-4.48c0-.24,0-.47,0-.71.08-.84.53-1,1.07-.8a20.34,20.34,0,0,0,2.09-3.7c-1.81-1.58-3.87-3.77-2.25-4.48,1-.43,2.06.06,3,.85a5.37,5.37,0,0,0-.13-1c-1.45-6.21-6.36-3.53-6.36-3.53-1.16-3-4.49-4.24-6.73-1.77C401.89,362.85,404.48,363.68,404.08,364.74Z" class="animable"/></g><path id="el4fgvy85vfv8" d="M427.51,368.94a12.11,12.11,0,0,0-2.88.61,6.44,6.44,0,0,1-.43-2.09c-.2-6.36,4.36-3.68,6.76-5.55a5.21,5.21,0,0,1,4-1.26,8.5,8.5,0,0,0-.54,1.09,1,1,0,0,0,.77,1.36,2.9,2.9,0,0,0,1.79-.21,4.6,4.6,0,0,0,.45-.32,8.54,8.54,0,0,1,.88,2.13,12.42,12.42,0,0,1,.41,2.72,8,8,0,0,0-1.06.3,1,1,0,0,0-.4,1.51,4.51,4.51,0,0,0,1.31.92,15.1,15.1,0,0,1-.8,3l-.32.05a5.35,5.35,0,0,0-.69.17,1.74,1.74,0,0,0-.38.14,1,1,0,0,0-.6.77,1,1,0,0,0,.38.92,4.57,4.57,0,0,0,.47.29,6.88,6.88,0,0,1-2.52,2.54,26.84,26.84,0,0,1-2.68-1.42c.19-.25.38-.51.56-.77a1.55,1.55,0,0,0,.27-1,1.37,1.37,0,0,0-.52-.9,1.35,1.35,0,0,0-1.9.25c-.21.31-.44.61-.67.91A16.54,16.54,0,0,1,426,372l.09,0a9.93,9.93,0,0,1,1.8-.29,1.36,1.36,0,0,0-.35-2.69Z" class="animable" style="fill:#407bff;transform-origin:431.457px 369.325px"/><g id="el6qt8qifuzsi"><path style="fill:#fff;isolation:isolate;opacity:.5;transform-origin:431.457px 369.325px" d="M427.51,368.94a12.11,12.11,0,0,0-2.88.61,6.44,6.44,0,0,1-.43-2.09c-.2-6.36,4.36-3.68,6.76-5.55a5.21,5.21,0,0,1,4-1.26,8.5,8.5,0,0,0-.54,1.09,1,1,0,0,0,.77,1.36,2.9,2.9,0,0,0,1.79-.21,4.6,4.6,0,0,0,.45-.32,8.54,8.54,0,0,1,.88,2.13,12.42,12.42,0,0,1,.41,2.72,8,8,0,0,0-1.06.3,1,1,0,0,0-.4,1.51,4.51,4.51,0,0,0,1.31.92,15.1,15.1,0,0,1-.8,3l-.32.05a5.35,5.35,0,0,0-.69.17,1.74,1.74,0,0,0-.38.14,1,1,0,0,0-.6.77,1,1,0,0,0,.38.92,4.57,4.57,0,0,0,.47.29,6.88,6.88,0,0,1-2.52,2.54,26.84,26.84,0,0,1-2.68-1.42c.19-.25.38-.51.56-.77a1.55,1.55,0,0,0,.27-1,1.37,1.37,0,0,0-.52-.9,1.35,1.35,0,0,0-1.9.25c-.21.31-.44.61-.67.91A16.54,16.54,0,0,1,426,372l.09,0a9.93,9.93,0,0,1,1.8-.29,1.36,1.36,0,0,0-.35-2.69Z" class="animable"/></g><path id="elhkou2wf42dd" d="M429.33,347a8.48,8.48,0,0,1,1.78-.95,4.3,4.3,0,0,0-.69-1.28c-2.69-3.43-3.9,0-6,.05a3.58,3.58,0,0,0-2.67,1.1,6.51,6.51,0,0,1,.76.34.69.69,0,0,1,.2,1.05,1.91,1.91,0,0,1-1,.67,2.33,2.33,0,0,1-.38,0,6.12,6.12,0,0,0,.48,1.5,8.06,8.06,0,0,0,1,1.61,7.22,7.22,0,0,1,.69-.31.67.67,0,0,1,.87.62,3.13,3.13,0,0,1-.28,1.06,10.05,10.05,0,0,0,1.73,1.22l.19-.12a4.25,4.25,0,0,1,.43-.21l.26-.1a.71.71,0,0,1,.66.15.68.68,0,0,1,.2.65,2.53,2.53,0,0,1-.12.36,4.93,4.93,0,0,0,2.44.23,18.24,18.24,0,0,0,.79-1.92l-.63-.17a1,1,0,0,1-.58-.4.91.91,0,0,1-.13-.7.94.94,0,0,1,.41-.58.91.91,0,0,1,.7-.12l.75.18a11.21,11.21,0,0,0,.32-3.07l-.06,0a6.68,6.68,0,0,0-1.07.63.93.93,0,0,1-1-1.56Z" class="animable" style="fill:#407bff;transform-origin:426.423px 348.974px"/><g id="elprxprpbml6l"><path style="fill:#fff;isolation:isolate;opacity:.3;transform-origin:426.423px 348.974px" d="M429.33,347a8.48,8.48,0,0,1,1.78-.95,4.3,4.3,0,0,0-.69-1.28c-2.69-3.43-3.9,0-6,.05a3.58,3.58,0,0,0-2.67,1.1,6.51,6.51,0,0,1,.76.34.69.69,0,0,1,.2,1.05,1.91,1.91,0,0,1-1,.67,2.33,2.33,0,0,1-.38,0,6.12,6.12,0,0,0,.48,1.5,8.06,8.06,0,0,0,1,1.61,7.22,7.22,0,0,1,.69-.31.67.67,0,0,1,.87.62,3.13,3.13,0,0,1-.28,1.06,10.05,10.05,0,0,0,1.73,1.22l.19-.12a4.25,4.25,0,0,1,.43-.21l.26-.1a.71.71,0,0,1,.66.15.68.68,0,0,1,.2.65,2.53,2.53,0,0,1-.12.36,4.93,4.93,0,0,0,2.44.23,18.24,18.24,0,0,0,.79-1.92l-.63-.17a1,1,0,0,1-.58-.4.91.91,0,0,1-.13-.7.94.94,0,0,1,.41-.58.91.91,0,0,1,.7-.12l.75.18a11.21,11.21,0,0,0,.32-3.07l-.06,0a6.68,6.68,0,0,0-1.07.63.93.93,0,0,1-1-1.56Z" class="animable"/></g><path id="ellv5f2a5bu18" d="M403.62,353.37c-.19,1.29,3.31,2.14,6.17,2.62-.23,2.34-1.79,4.71-4,6.92-2.71-1.52-6.58-3.54-7.29-3.05s3.18,3.1,5.66,4.61a52,52,0,0,1-5.61,4.25c-1.21-1.14-2.64-2.13-3.48-1.59s-.65,2.31-.21,3.88c-3,1.72-5.16,2.76-5.16,2.76a59.21,59.21,0,0,1-2-8.37c.15-.29.3-.59.43-.9.48-1.1,0-1.57-.77-1.72a29.7,29.7,0,0,1-.05-6c3.34-.7,7.4-2,5.88-4-.92-1.21-2.6-1.34-4.34-1a7,7,0,0,1,.82-1.12c6.08-6.7,10.31,0,10.31,0,3.53-2.95,8.49-2.15,9.56,2.45C407.64,352.53,403.85,351.77,403.62,353.37Z" class="animable" style="fill:#407bff;transform-origin:398.486px 360.726px"/><g id="elo2w82jmwtb"><path style="fill:#fff;isolation:isolate;opacity:.5;transform-origin:398.486px 360.726px" d="M403.62,353.37c-.19,1.29,3.31,2.14,6.17,2.62-.23,2.34-1.79,4.71-4,6.92-2.71-1.52-6.58-3.54-7.29-3.05s3.18,3.1,5.66,4.61a52,52,0,0,1-5.61,4.25c-1.21-1.14-2.64-2.13-3.48-1.59s-.65,2.31-.21,3.88c-3,1.72-5.16,2.76-5.16,2.76a59.21,59.21,0,0,1-2-8.37c.15-.29.3-.59.43-.9.48-1.1,0-1.57-.77-1.72a29.7,29.7,0,0,1-.05-6c3.34-.7,7.4-2,5.88-4-.92-1.21-2.6-1.34-4.34-1a7,7,0,0,1,.82-1.12c6.08-6.7,10.31,0,10.31,0,3.53-2.95,8.49-2.15,9.56,2.45C407.64,352.53,403.85,351.77,403.62,353.37Z" class="animable"/></g></g><g style="transform-origin:91.1024px 368.038px" id="freepik--plant-1--inject-1" class="animable"><path id="elffe0p9o4j4m" d="M93.11,394.32s-4.66-10.17.66-20.2,6.87-12.39,3.48-14.44-5,8-5,8a22.62,22.62,0,0,1-.49-14.19c2.36-7.25,3.84-19.07.61-20.34s-.61,14.74-3.41,20.2a46.58,46.58,0,0,1-2.74-11.9c-.39-5.83.21-15.13-2.33-17.52s-4.19-.74-1.68,12.12a135.41,135.41,0,0,1,2.49,23.32S79.2,342.52,75.49,342s-3.71,5-.53,9.7,9.31,13.23,10.31,17.6c0,0-6.07-12.7-11.53-8.8s4.75,11.55,9.31,14.32S90.76,395,90.76,395Z" class="animable" style="fill:#407bff;transform-origin:85.6094px 359.003px"/><g id="elbfrjenqmjeu"><path style="isolation:isolate;opacity:.2;transform-origin:85.6094px 359.003px" d="M93.11,394.32s-4.66-10.17.66-20.2,6.87-12.39,3.48-14.44-5,8-5,8a22.62,22.62,0,0,1-.49-14.19c2.36-7.25,3.84-19.07.61-20.34s-.61,14.74-3.41,20.2a46.58,46.58,0,0,1-2.74-11.9c-.39-5.83.21-15.13-2.33-17.52s-4.19-.74-1.68,12.12a135.41,135.41,0,0,1,2.49,23.32S79.2,342.52,75.49,342s-3.71,5-.53,9.7,9.31,13.23,10.31,17.6c0,0-6.07-12.7-11.53-8.8s4.75,11.55,9.31,14.32S90.76,395,90.76,395Z" class="animable"/></g><path id="elyl35jby7ngg" d="M89.43,398.49s4.54-10.24-.91-20.19-7-12.28-3.65-14.39,5,7.95,5,7.95a22.64,22.64,0,0,0,.33-14.19c-2.45-7.22-4.07-19-.86-20.33s.79,14.73,3.66,20.14a46.88,46.88,0,0,0,2.59-11.94c.32-5.83-.39-15.12,2.13-17.55s4.17-.8,1.82,12.1a134.9,134.9,0,0,0-2.21,23.35s5.33-16.95,9-17.5,3.77,4.91.64,9.7S97.92,369,97,373.39c0,0,5.92-12.79,11.43-9s-4.61,11.63-9.13,14.47-7.48,20.25-7.48,20.25Z" class="animable" style="fill:#407bff;transform-origin:96.5705px 363.076px"/><polygon id="el18bd41dd4gd" points="104.69 393.69 77.61 393.69 79.81 413.07 102.5 413.07 104.69 393.69" class="animable" style="fill:#263238;transform-origin:91.15px 403.38px"/></g><g style="transform-origin:316.615px 157.23px" id="freepik--speech-bubble-3--inject-1" class="animable"><path id="el2b3lgdjxhli" d="M312.79,161s1.71,9.37,14.1,13.6c0,0-7.05-6.8-7.05-13.6Z" class="animable" style="fill:#407bff;transform-origin:319.84px 167.8px"/><g id="elxdcr1n6d3n"><path style="fill:#fff;opacity:.8;transform-origin:319.84px 167.8px" d="M312.79,161s1.71,9.37,14.1,13.6c0,0-7.05-6.8-7.05-13.6Z" class="animable"/></g><rect id="eljb9osa4owb" width="33.29" height="24.07" x="299.97" y="139.86" class="animable" rx="2.79" style="fill:#407bff;transform-origin:316.615px 151.895px"/><g id="el26xfuu7esjk"><rect style="fill:#fff;opacity:.8;transform-origin:316.615px 151.895px" width="33.29" height="24.07" x="299.97" y="139.86" class="animable" rx="2.79"/></g><path id="el7v9osu2oxnf" d="M309.9,151.89a1.85,1.85,0,1,1-1.85-1.85A1.85,1.85,0,0,1,309.9,151.89Z" class="animable" style="fill:#407bff;transform-origin:308.05px 151.89px"/><circle id="el19zvo8k40cr" cx="316.61" cy="151.89" r="1.85" class="animable" style="fill:#407bff;transform-origin:316.61px 151.89px"/><circle id="elwp8eyor0vf" cx="325.17" cy="151.89" r="1.85" class="animable" style="fill:#407bff;transform-origin:325.17px 151.89px"/></g><g style="transform-origin:270.875px 182.48px" id="freepik--speech-bubble-2--inject-1" class="animable"><path id="elrnyouv3hk7p" d="M274.69,186.23s-1.7,9.38-14.09,13.61c0,0,7-6.81,7-13.61Z" class="animable" style="fill:#407bff;transform-origin:267.645px 193.035px"/><g id="eltcbv2b7k1jo"><path style="fill:#fff;opacity:.8;transform-origin:267.645px 193.035px" d="M274.69,186.23s-1.7,9.38-14.09,13.61c0,0,7-6.81,7-13.61Z" class="animable"/></g><g id="elhk206blmhhw"><rect style="fill:#407bff;transform-origin:270.875px 177.155px;transform:rotate(180deg)" width="33.29" height="24.07" x="254.23" y="165.12" class="animable" rx="2.79"/></g><g id="eluu689ixlw4p"><rect style="fill:#fff;opacity:.8;transform-origin:270.875px 177.155px;transform:rotate(180deg)" width="33.29" height="24.07" x="254.23" y="165.12" class="animable" rx="2.79"/></g><path id="elzwgc3378p7k" d="M277.59,177.15a1.85,1.85,0,1,0,1.85-1.84A1.85,1.85,0,0,0,277.59,177.15Z" class="animable" style="fill:#407bff;transform-origin:279.44px 177.16px"/><path id="elxpstltexir" d="M269,177.15a1.85,1.85,0,1,0,1.84-1.84A1.84,1.84,0,0,0,269,177.15Z" class="animable" style="fill:#407bff;transform-origin:270.85px 177.16px"/><path id="el4os3r0kpylf" d="M260.46,177.15a1.85,1.85,0,1,0,1.85-1.84A1.85,1.85,0,0,0,260.46,177.15Z" class="animable" style="fill:#407bff;transform-origin:262.31px 177.16px"/></g><g style="transform-origin:200.885px 151.6px" id="freepik--speech-bubble-1--inject-1" class="animable"><path id="el0pl8yqq3mgcj" d="M204.24,155.36s-1.7,9.37-14.09,13.6c0,0,7-6.8,7-13.6Z" class="animable" style="fill:#407bff;transform-origin:197.195px 162.16px"/><g id="elahlu1lz345q"><path style="fill:#fff;opacity:.8;transform-origin:197.195px 162.16px" d="M204.24,155.36s-1.7,9.37-14.09,13.6c0,0,7-6.8,7-13.6Z" class="animable"/></g><rect id="elu3363n4l9xd" width="24.99" height="24.07" x="188.39" y="134.24" class="animable" rx="2.79" style="fill:#407bff;transform-origin:200.885px 146.275px"/><g id="eltbt7ddqd4s"><rect style="fill:#fff;opacity:.8;transform-origin:200.885px 146.275px" width="24.99" height="24.07" x="188.39" y="134.24" class="animable" rx="2.79"/></g><text style="font-size:15.754949569702148px;fill:#407bff;font-family:Montserrat-SemiBold,Montserrat;font-weight:600" transform="translate(196.27 152.19)">?</text></g><g style="transform-origin:344.002px 289.055px" id="freepik--character-3--inject-1" class="animable"><path id="elna4x9593a5" d="M338.53,201.31a5.63,5.63,0,0,0-7.26,3.24l0,.06c-1,2.56-2,5.25-3,7.86s-2.08,5.23-3.16,7.8-2.23,5.09-3.42,7.5c-.59,1.2-1.23,2.37-1.85,3.47-.29.49-.59,1-.88,1.4-.25-.34-.5-.71-.75-1.09-.85-1.31-1.67-2.75-2.48-4.23s-1.61-3-2.39-4.48l-.06-.11a2.82,2.82,0,0,0-5.28,1.65,47.54,47.54,0,0,0,1,5.5,45.53,45.53,0,0,0,1.66,5.44,28.4,28.4,0,0,0,1.27,2.8,14,14,0,0,0,2.06,3,8.55,8.55,0,0,0,2,1.67,6.91,6.91,0,0,0,3.88,1.06,7,7,0,0,0,2.3-.48,8.36,8.36,0,0,0,1.72-1,9.82,9.82,0,0,0,1.56-1.49,34.34,34.34,0,0,0,3.23-4.07l.22-.33c.83-1.23,1.56-2.45,2.26-3.68,1.54-2.67,2.88-5.35,4.14-8,.46-1,.91-2,1.34-3,.77-1.72,1.49-3.45,2.19-5.19,1.08-2.76,2.14-5.45,3.09-8.32A5.62,5.62,0,0,0,338.53,201.31Z" class="animable" style="fill:#263238;transform-origin:325.086px 222.397px"/><g id="elgdbam8l9x4q"><path style="opacity:.2;transform-origin:332.567px 227.56px" d="M336.57,221.84c-.43,1-.88,2-1.34,3-1.26,2.7-2.6,5.38-4.14,8-.7,1.23-1.43,2.45-2.26,3.68-1.47-8.17,3.65-17.92,3.65-17.92C333.88,218.86,335.28,220.06,336.57,221.84Z" class="animable"/></g><path id="elweue1wazrqm" d="M375.53,232.52c0,1.46-.12,3-.2,4.51-.25,4.58-.68,9.59-1.33,15q-.31,2.7-.71,5.55l-42.5.73c-2.07-5.66-3.93-17.87,1.89-28.49,0-6.79-1.67-14.31-1.88-21.58-.13-4.55,3.82-8.73,9.21-9.68a104.26,104.26,0,0,1,25-1.09c4.58.31,8.19,3.06,8.9,6.87a107.11,107.11,0,0,1,1.42,11.9C375.61,220.79,375.74,226.21,375.53,232.52Z" class="animable" style="fill:#263238;transform-origin:352.205px 227.737px"/><path id="ele2139n3izrg" d="M344.36,197.13a4.39,4.39,0,0,0-2.29,5.47,9.16,9.16,0,0,0,6.15,6.38c1.71.36,11.85-5,13.12-9.75S344.36,197.13,344.36,197.13Z" class="animable" style="fill:#407bff;transform-origin:351.607px 202.695px"/><g id="elnz6mdkv6nv"><path style="fill:#fff;opacity:.5;transform-origin:351.607px 202.695px" d="M344.36,197.13a4.39,4.39,0,0,0-2.29,5.47,9.16,9.16,0,0,0,6.15,6.38c1.71.36,11.85-5,13.12-9.75S344.36,197.13,344.36,197.13Z" class="animable"/></g><g id="elbt7dgdabt2j"><path style="opacity:.2;transform-origin:366.859px 244.5px" d="M375.33,237c-.25,4.58-.68,9.59-1.33,15-5-.1-12.44-.71-14.23-3.39-2.74-4.11-.56-6.55-.56-6.55S370.92,239.48,375.33,237Z" class="animable"/></g><g id="eltx2i7vsczl"><path style="opacity:.2;transform-origin:372.201px 221.52px" d="M375.53,232.52c-5.38-5.42-6.76-22-6.76-22s3.11,2.42,6.54,5.73C375.61,220.79,375.74,226.21,375.53,232.52Z" class="animable"/></g><path id="elwjcvok5cac" d="M310.29,227.79l-8-2.3,5.79-6.88s6.75,2,5.67,6.19Z" class="animable" style="fill:#ff8b7b;transform-origin:308.079px 223.2px"/><path id="elno0vy7s154i" d="M299.71,220.43l2-3.17a2.35,2.35,0,0,1,3.31-.73l3.11,2.08-5.79,6.88-2.21-2.14A2.34,2.34,0,0,1,299.71,220.43Z" class="animable" style="fill:#ff8b7b;transform-origin:303.754px 220.812px"/><path id="elpknyrbzs8fc" d="M330.54,408.51l8.08.13a.6.6,0,0,1,.6.52l1,6.61a1.14,1.14,0,0,1-1.15,1.3c-2.92-.1-7.12-.33-10.79-.39-4.29-.07-3.86.11-8.89,0-3,0-3.68-3.14-2.39-3.4,5.87-1.17,6.47-1.24,11.67-4.25A3.68,3.68,0,0,1,330.54,408.51Z" class="animable" style="fill:#263238;transform-origin:328.305px 412.79px"/><path id="el34nyhuany98" d="M342.7,331c9-37.84,17.62-54.26,14.21-73l-26.13.31s-10.3,51.47-8.11,73.66c2.28,23.08,5.61,76.79,5.61,76.79l11.93.17S347.16,356.81,342.7,331Z" class="animable" style="fill:#407bff;transform-origin:340.018px 333.465px"/><g id="elgvqmx770vq7"><path style="opacity:.3;transform-origin:340.018px 333.465px" d="M342.7,331c9-37.84,17.62-54.26,14.21-73l-26.13.31s-10.3,51.47-8.11,73.66c2.28,23.08,5.61,76.79,5.61,76.79l11.93.17S347.16,356.81,342.7,331Z" class="animable"/></g><g id="elx3dhkixg8s"><path style="opacity:.2;transform-origin:348.701px 303.67px" d="M344,325.64c4.83-19.29,9.36-32.7,11.79-43.94C338.82,287.8,340.27,308.94,344,325.64Z" class="animable"/></g><path id="elhb1sb6sx7dj" d="M371.27,408.51l8.08.13a.58.58,0,0,1,.57.52l.71,6.61a1.21,1.21,0,0,1-1.22,1.3c-2.91-.1-3.82-.33-7.49-.39-4.28-.07-2.31.11-7.33,0-3,0-3.52-3.12-2.22-3.4,4.11-.86,5.19-2.5,7.05-4.25A2.66,2.66,0,0,1,371.27,408.51Z" class="animable" style="fill:#263238;transform-origin:371.167px 412.784px"/><path id="elbq3v5psucr" d="M370.33,331c4.06-37.84,8.84-54.68,3-73.44l-27.24.73s-.74,51.47,4.37,73.66c5.32,23.08,17.73,76.79,17.73,76.79l12,.17S378.18,356.81,370.33,331Z" class="animable" style="fill:#407bff;transform-origin:363.121px 333.235px"/><g id="elyckpwquwa9"><path style="opacity:.3;transform-origin:363.121px 333.235px" d="M370.33,331c4.06-37.84,8.84-54.68,3-73.44l-27.24.73s-.74,51.47,4.37,73.66c5.32,23.08,17.73,76.79,17.73,76.79l12,.17S378.18,356.81,370.33,331Z" class="animable"/></g><path id="el0zmqepnvw4ch" d="M356.05,187.06c0,4.35.26,9.44,3.82,12.5-2,2.67-5.83,6.76-11.38,6.05-6.11-.78-4.93-6.33-3.58-8.07,3-1.73,2.17-4.33,1.83-6.14Z" class="animable" style="fill:#ff8b7b;transform-origin:351.848px 196.376px"/><g id="elpdjtth58l4"><path style="opacity:.2;transform-origin:350.375px 191.585px" d="M354,188.84c0-.27,0-.55,0-.82l-7.25,3.38a8.2,8.2,0,0,1,.2,3.75C350.43,194.09,353.92,191.47,354,188.84Z" class="animable"/></g><path id="el6mlkhm4snjs" d="M359.68,175c-.93,7.29-1.1,11.6-5.05,15.09-5.93,5.24-14.76,1.21-16-6.23-1.14-6.69.57-17.49,7.93-19.87A10.12,10.12,0,0,1,359.68,175Z" class="animable" style="fill:#ff8b7b;transform-origin:349.041px 177.986px"/><path id="elfn8zib81uy4" d="M348,176.5c0,.6-.39,1.06-.78,1s-.67-.54-.63-1.13.38-1.06.77-1S348.05,175.91,348,176.5Z" class="animable" style="fill:#263238;transform-origin:347.296px 176.435px"/><path id="elpp78sa45d9d" d="M340.55,176.18c0,.6-.38,1.06-.77,1s-.68-.54-.64-1.13.39-1.06.78-1S340.59,175.58,340.55,176.18Z" class="animable" style="fill:#263238;transform-origin:339.845px 176.115px"/><path id="ela66e5zb02w6" d="M342.72,176.94a21.16,21.16,0,0,1-3.48,4.68,3.47,3.47,0,0,0,2.76.92Z" class="animable" style="fill:#ff5652;transform-origin:340.98px 179.751px"/><path id="elsnp9wra193r" d="M349.36,172.54a.58.58,0,0,0,.17-.06.36.36,0,0,0,.1-.49,3.51,3.51,0,0,0-2.76-1.65.34.34,0,0,0-.35.35.35.35,0,0,0,.35.35h0a2.79,2.79,0,0,1,2.17,1.34A.38.38,0,0,0,349.36,172.54Z" class="animable" style="fill:#263238;transform-origin:348.103px 171.44px"/><path id="eldpikyp6263" d="M338.29,173.14a.33.33,0,0,0,.31-.1,2.76,2.76,0,0,1,2.37-.88.35.35,0,0,0,.41-.28.35.35,0,0,0-.28-.41,3.45,3.45,0,0,0-3,1.08.35.35,0,0,0,0,.5A.31.31,0,0,0,338.29,173.14Z" class="animable" style="fill:#263238;transform-origin:339.691px 172.293px"/><path id="el7q50hi1zmc" d="M342.54,184a24.79,24.79,0,0,1,1.94,2.91l.58-.22c2.61-1,3.49-2.32,3.68-3.49a3.91,3.91,0,0,0-.6-2.57c-1.07,1.35-3.43,2.47-4.72,3C342.89,183.9,342.54,184,342.54,184Z" class="animable" style="fill:#263238;transform-origin:345.653px 183.77px"/><path id="elzpzvws31j8g" d="M343.42,183.67l.6.84c2.45-.95,4.06-1.95,4.54-3a3.73,3.73,0,0,0-.42-.87C347.07,182,344.71,183.12,343.42,183.67Z" class="animable" style="fill:#fff;transform-origin:345.99px 182.575px"/><path id="elhdykbnmrthp" d="M345.06,186.71c2.61-1,3.49-2.32,3.68-3.49a9,9,0,0,0-2.68,1.69A3.32,3.32,0,0,0,345.06,186.71Z" class="animable" style="fill:#de5753;transform-origin:346.9px 184.965px"/><path id="elvv9g2eezx2" d="M342.24,166.94s-2.17-1.26-.85-4.44,13.89-.86,19.39,4S359,180.65,359,180.65l-3.37,1.9s-3.24-7.5-1-13a44.84,44.84,0,0,0-4.26-2.79C349.44,166.35,345.15,169.07,342.24,166.94Z" class="animable" style="fill:#263238;transform-origin:351.9px 171.795px"/><path id="elheckq9iclyb" d="M361.69,182.64a7,7,0,0,1-4.37,3.05c-2.39.5-3.45-1.68-2.67-3.86.7-2,2.8-4.59,5.15-4.12A3.16,3.16,0,0,1,361.69,182.64Z" class="animable" style="fill:#ff8b7b;transform-origin:358.34px 181.708px"/><path id="elg3eq04psiyu" d="M388.62,235.65c0-.31,0-.73-.06-.87l-.13-1.18c-.11-.77-.22-1.55-.37-2.29a66.2,66.2,0,0,0-5.9-16.36c-1.27-2.52-2.61-5-4.07-7.36-.72-1.2-1.46-2.38-2.23-3.55s-1.53-2.29-2.43-3.53a5.62,5.62,0,0,0-9.17,6.49l.05.09c.65.94,1.38,2.07,2.06,3.12s1.38,2.16,2,3.25c1.32,2.2,2.62,4.39,3.81,6.63a65.14,65.14,0,0,1,5.71,13.48c.17.56.27,1.1.4,1.65l.15.81c0,.19,0,.11,0,.13s0,0,0,0,.08-.13.11-.09,0,.19-.19.4a7,7,0,0,1-1.95,1.51,20.19,20.19,0,0,1-3,1.45,59.21,59.21,0,0,1-7.11,2.22c-1.24.3-2.49.62-3.76.9s-2.57.52-3.78.77l-.16,0a2.79,2.79,0,0,0,.38,5.53,58.75,58.75,0,0,0,17-1.16,30.14,30.14,0,0,0,4.46-1.42,16.54,16.54,0,0,0,4.71-2.92,10.61,10.61,0,0,0,2.22-2.78,9.55,9.55,0,0,0,1.16-3.93C388.61,236.33,388.64,236,388.62,235.65Z" class="animable" style="fill:#263238;transform-origin:372.473px 223.653px"/><path id="eldq0x5wlu92" d="M357.41,195.36c.18,1.69-1.84,7.68-8.92,10.25,2.73,0,3.92,3.48,3.92,3.48s9.39-5,8.27-11A3.33,3.33,0,0,0,357.41,195.36Z" class="animable" style="fill:#407bff;transform-origin:354.631px 202.225px"/><path id="elr4ap8vez5w" d="M346.29,195.82c.18,1.65-1.74,5.13,2.2,9.79-2.74,0-4.37,2.74-4.37,2.74a11.68,11.68,0,0,1-.78-11.17A5.44,5.44,0,0,1,346.29,195.82Z" class="animable" style="fill:#407bff;transform-origin:345.383px 202.085px"/><polygon id="eluw9wxv2968" points="330.25 256.68 330 262.41 374.3 261.21 373.57 255.49 330.25 256.68" class="animable" style="fill:#407bff;transform-origin:352.15px 258.95px"/><g id="ele3rmx1eywwt"><polygon style="opacity:.3;transform-origin:352.15px 258.95px" points="330.25 256.68 330 262.41 374.3 261.21 373.57 255.49 330.25 256.68" class="animable"/></g><polygon id="elpj483w4j7ur" points="369.96 259.62 374.3 259.54 373.72 256.66 369.96 256.74 369.96 259.62" class="animable" style="fill:#263238;transform-origin:372.13px 258.14px"/><polygon id="elmqedd59k4r" points="368.78 256.76 353.1 257.1 353.1 259.94 368.78 259.64 368.78 256.76" class="animable" style="fill:#263238;transform-origin:360.94px 258.35px"/><polygon id="elmfj3p6mi5op" points="333.42 257.51 330 257.59 330 260.36 333.42 260.3 333.42 257.51" class="animable" style="fill:#263238;transform-origin:331.71px 258.935px"/><polygon id="elgh9jnfyz81e" points="334.43 257.49 334.43 260.28 351.56 259.96 351.56 257.13 334.43 257.49" class="animable" style="fill:#263238;transform-origin:342.995px 258.705px"/><path id="el7ijsn89004e" d="M343.74,260.82h-3.68a.87.87,0,0,1-.87-.86v-2.18a.87.87,0,0,1,.85-.87l3.68-.08a1,1,0,0,1,.63.25.87.87,0,0,1,.26.62V260A.87.87,0,0,1,343.74,260.82Zm-3.63-3V260l3.63-.06-.05-2.2Z" class="animable" style="fill:#fff;transform-origin:341.9px 258.825px"/><path id="elvtftnbwq0u" d="M343.35,259.29h-1.07a.47.47,0,0,1-.46-.46.46.46,0,0,1,.46-.46h1.07a.45.45,0,0,1,.46.46A.46.46,0,0,1,343.35,259.29Z" class="animable" style="fill:#fff;transform-origin:342.815px 258.83px"/><polygon id="el4tmcs0wnf2s" points="346.54 248.65 354.01 248.65 355.37 235.35 345.17 235.35 346.54 248.65" class="animable" style="fill:#407bff;transform-origin:350.27px 242px"/><g id="elvl4r7c1y14"><rect style="fill:#fff;transform-origin:350.27px 235.23px;transform:rotate(180deg)" width="11.3" height="1.34" x="344.62" y="234.56" class="animable"/></g><path id="ell818od01nw" d="M346.9,241.61a2.77,2.77,0,1,0,2.73-3.22A3,3,0,0,0,346.9,241.61Z" class="animable" style="fill:#fff;transform-origin:349.647px 241.16px"/><path id="elzyz40coq2s" d="M362.21,242.93l-7.13-2.32-.27,9s6.71,1.32,8-2.14Z" class="animable" style="fill:#ff8b7b;transform-origin:358.81px 245.234px"/><path id="eloip20mvpt8k" d="M348.11,244.09l.43,3.17a2.6,2.6,0,0,0,2.51,2.24l3.76.1.27-9-4.7.55A2.59,2.59,0,0,0,348.11,244.09Z" class="animable" style="fill:#ff8b7b;transform-origin:351.582px 245.1px"/><g id="elslyy9b98u1n"><path style="fill:#fff;opacity:.7;transform-origin:354.631px 202.225px" d="M357.41,195.36c.18,1.69-1.84,7.68-8.92,10.25,2.73,0,3.92,3.48,3.92,3.48s9.39-5,8.27-11A3.33,3.33,0,0,0,357.41,195.36Z" class="animable"/></g><g id="el80hfrbt825t"><path style="fill:#fff;opacity:.7;transform-origin:345.383px 202.085px" d="M346.29,195.82c.18,1.65-1.74,5.13,2.2,9.79-2.74,0-4.37,2.74-4.37,2.74a11.68,11.68,0,0,1-.78-11.17A5.44,5.44,0,0,1,346.29,195.82Z" class="animable"/></g></g><g style="transform-origin:255.747px 297.343px" id="freepik--character-2--inject-1" class="animable"><path id="el38r31e79cut" d="M290.72,243.06l7.61-1-3.24-6.62s-7,2.05-6.8,4.32Z" class="animable" style="fill:#ffb573;transform-origin:293.308px 239.25px"/><polygon id="elkjxxxz6dtdp" points="302.2 236.43 298.75 232.41 295.09 235.48 298.33 242.1 302.2 236.43" class="animable" style="fill:#ffb573;transform-origin:298.645px 237.255px"/><path id="eln8kcnmn9brm" d="M253.15,231.11s5.25,12.92,13.77,17.63,24.56-5.68,24.56-5.68L289,238.47s-17.66,4.33-18.39,3.67-8.63-22-18.74-24.88Z" class="animable" style="fill:#407bff;transform-origin:271.675px 233.613px"/><g id="el8wenydsigk3"><path style="fill:#fff;opacity:.7;transform-origin:271.7px 233.635px" d="M291.49,243.07s-16,10.39-24.57,5.67a25,25,0,0,1-7.28-6.58,51,51,0,0,1-6.49-11l-1.24-13.86c10.1,2.85,18,24.23,18.74,24.89S289,238.47,289,238.47Z" class="animable"/></g><g id="elou2uqg1g2i"><path style="opacity:.1;transform-origin:257.47px 236.225px" d="M259.64,242.16a46.8,46.8,0,0,1-4.43-6.8,11.08,11.08,0,0,1,1.59-5.07S260.33,234.5,259.64,242.16Z" class="animable"/></g><path id="elro3uhv96zs" d="M227.1,181.79s5.8-7.89,16.25-2c13.39,7.48,5.6,42.45,5.6,42.45l-23,3.73S211.94,184.8,227.1,181.79Z" class="animable" style="fill:#263238;transform-origin:235.627px 201.788px"/><path id="elbdu9pd6m18" d="M256.4,262.78s5.07,39.42,4.62,64.46c1.76,23.48,3.24,72.76,5.9,78.08-.09,1.2-4.44,1.44-5.57.72,0,0-17.38-40.68-15-78.8-16.13-39.76-15.17-64.46-15.17-64.46Z" class="animable" style="fill:#ffb573;transform-origin:249.045px 334.613px"/><path id="elj5rxoqv22d" d="M249.53,262.78s-11.53,44.5-16.1,66.35c-4.79,22.94-9.71,50.66-9.78,76.76-1.28.76-2.71,1.88-5.31,1.08,0,0-11.23-52.26-.88-76.83-4.54-54.36,9.84-67.36,9.84-67.36Z" class="animable" style="fill:#ffb573;transform-origin:231.304px 335.013px"/><path id="elppzimkqyaig" d="M227.1,261.76l28.91,4c.35-6.13,3.18-36.4,3.09-39.07-.17-5-4.36-9.34-9.67-10-1.47-.19-3-.37-4.49-.49a100.42,100.42,0,0,0-13.67,0c-1.3.06-2.56.16-3.75.27-4.46.43-7.54,4.52-6,8.58C223.46,230.14,226.48,257.68,227.1,261.76Z" class="animable" style="fill:#407bff;transform-origin:240.11px 240.864px"/><g id="ele3fieabscrt"><path style="fill:#fff;opacity:.7;transform-origin:240.107px 240.822px" d="M259.1,226.67c.08,2.68-2.74,32.94-3.09,39.08l-28.91-4c-.07-.45-.16-1.16-.28-2.08-.36-2.83-.94-7.66-1.61-12.88-.29-2.16-.58-4.4-.9-6.58-.56-4-1.14-7.79-1.69-10.69a31.41,31.41,0,0,0-1.11-4.54c-1.53-4.08,1.54-8.17,6-8.59,1.19-.11,2.45-.2,3.75-.27a103.68,103.68,0,0,1,13.66,0c1.49.13,3,.31,4.5.5C254.74,217.33,258.94,221.68,259.1,226.67Z" class="animable"/></g><path id="elyri2dvgp7c" d="M232.23,200.77c1.19,4.4,2.65,12.46-.21,15.39,0,0-2.05,3.86,9.56,3.5,1,2.42,3,6.85,3,6.85s.14-5.21-.66-7c7.46-.64,1.8-3.38,1.8-3.38-5-1.17-5.14-4.81-4.54-8.23Z" class="animable" style="fill:#ffb573;transform-origin:239.828px 213.64px"/><g id="elojh7upz9ivo"><path style="opacity:.2;transform-origin:238.465px 207.025px" d="M235.87,203.69l5.28,4.24a12.59,12.59,0,0,0-.24,2.43c-1.9-.27-4.62-2.33-5-4.29A6.51,6.51,0,0,1,235.87,203.69Z" class="animable"/></g><path id="el9islw5cl5fd" d="M228.13,193.12c1.26,6.7,1.66,9.55,5.5,12.76,5.79,4.82,13.73,2.27,14.49-4.55.68-6.14-1.5-16.05-8.44-18.26A8.76,8.76,0,0,0,228.13,193.12Z" class="animable" style="fill:#ffb573;transform-origin:238.089px 195.457px"/><path id="elapk03q4fg69" d="M233.92,188.29c-3.72,4.77,3.92,10.25-3.72,9.93s-4.53-11,0-13.46S233.92,188.29,233.92,188.29Z" class="animable" style="fill:#263238;transform-origin:229.77px 191.2px"/><path id="elhg7mkcpz00j" d="M230.23,184.84c1,4.56,1.69,5.75,5.78,4.51a4.7,4.7,0,0,1-.76-3.11,4.55,4.55,0,0,0,2.28,2.51,16.83,16.83,0,0,1,3.41-1,4.31,4.31,0,0,1-.2-2,4.23,4.23,0,0,0,1.54,1.86,11.92,11.92,0,0,1,3.69.65C246,183.44,237.75,178.26,230.23,184.84Z" class="animable" style="fill:#263238;transform-origin:238.1px 185.77px"/><path id="el2stasgi1qk2" d="M238.8,194.24c.08.57.45,1,.81,1s.6-.51.51-1.08-.44-1-.81-1S238.72,193.67,238.8,194.24Z" class="animable" style="fill:#263238;transform-origin:239.461px 194.2px"/><path id="elbctd0ypxqh" d="M245.68,193.84c.09.56.45,1,.81,1s.6-.5.52-1.07-.45-1-.81-1S245.6,193.27,245.68,193.84Z" class="animable" style="fill:#263238;transform-origin:246.345px 193.805px"/><path id="elyl6p2ebygm" d="M246,192.81l1.28-.49S246.79,193.43,246,192.81Z" class="animable" style="fill:#263238;transform-origin:246.64px 192.659px"/><path id="el62wea70d89i" d="M243.9,194.91a16.68,16.68,0,0,0,2.52,3.46,2.33,2.33,0,0,1-1.94.53Z" class="animable" style="fill:#ed893e;transform-origin:245.16px 196.924px"/><path id="ela049prq4175" d="M227.47,199.58a4.74,4.74,0,0,0,2.87,2.49c1.57.41,2.25-1.37,1.73-3.16-.48-1.6-1.86-3.75-3.39-3.36S226.68,198,227.47,199.58Z" class="animable" style="fill:#ffb573;transform-origin:229.667px 198.817px"/><path id="el2wvym0ulx93" d="M236.88,191.2a.33.33,0,0,0,.23-.1,2.47,2.47,0,0,1,2.19-.83.32.32,0,0,0,.37-.27.37.37,0,0,0-.29-.39,3.08,3.08,0,0,0-2.77,1,.33.33,0,0,0,0,.47A.34.34,0,0,0,236.88,191.2Z" class="animable" style="fill:#263238;transform-origin:238.091px 190.387px"/><path id="elrjfo4duxpx9" d="M247.23,190.59a.32.32,0,0,0,.23-.08.33.33,0,0,0,0-.47,3.54,3.54,0,0,0-2.85-1.26.31.31,0,0,0-.27.37.37.37,0,0,0,.39.29,2.87,2.87,0,0,1,2.25,1A.36.36,0,0,0,247.23,190.59Z" class="animable" style="fill:#263238;transform-origin:245.946px 189.684px"/><path id="elwy498apoadr" d="M239.16,193.21l1.28-.49S239.91,193.83,239.16,193.21Z" class="animable" style="fill:#263238;transform-origin:239.8px 193.059px"/><path id="elj3nchp1bkv" d="M244.05,201.61a19.52,19.52,0,0,0-1.54,2.31l-.46-.17c-2.08-.8-2.77-1.85-2.92-2.77a2.78,2.78,0,0,1,.14-1.35,2.67,2.67,0,0,1,.34-.7,10.33,10.33,0,0,0,3.74,2.4C243.77,201.51,244.05,201.61,244.05,201.61Z" class="animable" style="fill:#263238;transform-origin:241.576px 201.425px"/><path id="elvwsdxftx31" d="M243.35,201.33l-.47.67c-1.95-.75-3.23-1.55-3.61-2.37a2.67,2.67,0,0,1,.34-.7A10.33,10.33,0,0,0,243.35,201.33Z" class="animable" style="fill:#fff;transform-origin:241.31px 200.465px"/><path id="elm4whnd5hdn" d="M242.05,203.75c-2.08-.8-2.77-1.85-2.92-2.77a7.06,7.06,0,0,1,2.13,1.33A2.71,2.71,0,0,1,242.05,203.75Z" class="animable" style="fill:#de5753;transform-origin:240.59px 202.365px"/><path id="elvvkgct38t4d" d="M242.14,214.38s2.2,2.36,1.75,5.16l5.06,1.07A7.39,7.39,0,0,0,242.14,214.38Z" class="animable" style="fill:#407bff;transform-origin:245.545px 217.495px"/><path id="elimlhfddmbwc" d="M241.58,219.66s-6.78-3.9-8.29-6l-3,2.27s-.95,3.54,3.15,6.72Z" class="animable" style="fill:#407bff;transform-origin:235.887px 218.155px"/><g id="elhwvd1oekpy"><path style="fill:#fff;opacity:.6;transform-origin:245.545px 217.495px" d="M242.14,214.38s2.2,2.36,1.75,5.16l5.06,1.07A7.39,7.39,0,0,0,242.14,214.38Z" class="animable"/></g><g id="ely17rqmw5x4"><path style="fill:#fff;opacity:.6;transform-origin:235.887px 218.155px" d="M241.58,219.66s-6.78-3.9-8.29-6l-3,2.27s-.95,3.54,3.15,6.72Z" class="animable"/></g><path id="ela7z1mqts3i7" d="M260.47,416.71H262l.41-1.84,4.95,2.21,12.53,0s2-2-4-3.59a4.28,4.28,0,0,1-.85-.32c-3.18-1.48-7.73-6.5-7.73-6.5l-6.87,0a8.86,8.86,0,0,0-.56,1C259.11,409.15,257.82,412.33,260.47,416.71Z" class="animable" style="fill:#263238;transform-origin:269.545px 411.875px"/><path id="elzcvau9q75i" d="M259.86,407.64v0c.9-1,5.05,3.41,8.08,4.91,2.7,1.34,5.74,1.92,7.08.55-3.18-1.48-8.21-8-8.21-8l-5.53,0S260.18,407,259.86,407.64Z" class="animable" style="fill:#ebb376;transform-origin:267.44px 409.492px"/><path id="elt1bn9zdaxwl" d="M217.14,416.71h1.5l.41-1.84,4.95,2.21,12.53,0s2-2-4-3.59a4.28,4.28,0,0,1-.85-.32c-3.18-1.48-7.73-6.5-7.73-6.5l-6.87,0a8.86,8.86,0,0,0-.56,1C215.78,409.15,214.5,412.33,217.14,416.71Z" class="animable" style="fill:#263238;transform-origin:226.2px 411.875px"/><path id="elccovw7y6m6" d="M216.53,407.64v0c.9-1,5.05,3.41,8.08,4.91,2.71,1.34,5.74,1.92,7.08.55-3.18-1.48-8.21-8-8.21-8l-5.53,0S216.85,407,216.53,407.64Z" class="animable" style="fill:#ebb376;transform-origin:224.11px 409.492px"/><path id="elyqx4e3ud22" d="M215.49,321.4a9.85,9.85,0,0,0,2.67,2.08c.14-5,1.59-7.38,1.59-7.38a24.38,24.38,0,0,0,.78,8.55c7.69,3.25,22.52,5.39,41.06.85,0-21.75-4.3-58.35-4.6-61.92,0,0-22,.58-30.92.58C216.3,275.81,213.67,313.21,215.49,321.4Z" class="animable" style="fill:#263238;transform-origin:238.271px 295.84px"/><g id="elnvwkr5ucl4m"><path style="fill:#fff;opacity:.2;transform-origin:238.271px 295.84px" d="M215.49,321.4a9.85,9.85,0,0,0,2.67,2.08c.14-5,1.59-7.38,1.59-7.38a24.38,24.38,0,0,0,.78,8.55c7.69,3.25,22.52,5.39,41.06.85,0-21.75-4.3-58.35-4.6-61.92,0,0-22,.58-30.92.58C216.3,275.81,213.67,313.21,215.49,321.4Z" class="animable"/></g><path id="eldccmqqfxxmd" d="M256.82,264.93a141.8,141.8,0,0,1-31-.06.68.68,0,0,1-.53-1l.75-1.74a.64.64,0,0,1,.66-.4,139.75,139.75,0,0,0,29.77,0,.66.66,0,0,1,.72.6l.18,1.81A.68.68,0,0,1,256.82,264.93Z" class="animable" style="fill:#263238;transform-origin:241.294px 263.738px"/><g id="elkascoz253r"><path style="opacity:.1;transform-origin:224.99px 234.64px" d="M227.36,229.41s-.37,7.05-3.05,10.82c-.56-4-1.14-7.79-1.69-10.69A6.86,6.86,0,0,1,227.36,229.41Z" class="animable"/></g><g id="elwl61hg8hkr9"><path style="opacity:.1;transform-origin:228.55px 253.28px" d="M231.89,250v6.28a29,29,0,0,1-5.07,3.44c-.36-2.83-.94-7.66-1.61-12.88A56.9,56.9,0,0,0,231.89,250Z" class="animable"/></g><polygon id="elf55e2zjeg4p" points="242.82 257.02 235.35 257.02 233.99 243.72 244.19 243.72 242.82 257.02" class="animable" style="fill:#407bff;transform-origin:239.09px 250.37px"/><rect id="elj16g5kduh3" width="11.3" height="1.34" x="233.44" y="242.93" class="animable" style="fill:#fff;transform-origin:239.09px 243.6px"/><path id="elz5rl0vk2ek" d="M242.46,250a2.77,2.77,0,1,1-2.73-3.22A3,3,0,0,1,242.46,250Z" class="animable" style="fill:#fff;transform-origin:239.713px 249.55px"/><path id="el8ycc12fr9w" d="M238.84,249.84l-1.94-1.14a2.65,2.65,0,0,0-2.39-.13l-3.6,1.62a4.88,4.88,0,0,0-2.79,3.49l-.19,1c3.09,2.1,8,2.1,8,2.1l1.39.15a2.17,2.17,0,0,0,2.46-1.87l.34-2.76A2.49,2.49,0,0,0,238.84,249.84Z" class="animable" style="fill:#ffb573;transform-origin:234.033px 252.649px"/><path id="elipkbthl10l" d="M225.27,217c-8.5,1.34-17.13,28.17-15.85,33s20.25,5.74,20.25,5.74l.56-5.74s-9.53-2.82-10.89-4.65,5.93-12.71,5.93-12.71a16.53,16.53,0,0,0,2.69-8.16C228,218.9,225.27,217,225.27,217Z" class="animable" style="fill:#407bff;transform-origin:219.762px 236.37px"/><g id="elthtssckzv6d"><path style="fill:#fff;opacity:.7;transform-origin:219.762px 236.37px" d="M225.27,217c-8.5,1.34-17.13,28.17-15.85,33s20.25,5.74,20.25,5.74l.56-5.74s-9.53-2.82-10.89-4.65,5.93-12.71,5.93-12.71a16.53,16.53,0,0,0,2.69-8.16C228,218.9,225.27,217,225.27,217Z" class="animable"/></g></g><g style="transform-origin:166.971px 287.702px" id="freepik--character-1--inject-1" class="animable"><path id="els3utrvgllsp" d="M179.32,176.73c-1,0-1.81-1.28-1.88-2.95a4.33,4.33,0,0,1,.39-2.12,1.56,1.56,0,0,1,1.27-1h.05c1,0,1.81,1.28,1.89,3h0a4.33,4.33,0,0,1-.4,2.12,1.56,1.56,0,0,1-1.27,1Zm-.17-5.61h0c-.33,0-.64.28-.88.75a3.86,3.86,0,0,0-.34,1.89c.06,1.39.7,2.55,1.45,2.51a1.14,1.14,0,0,0,.88-.75,3.82,3.82,0,0,0,.35-1.88h0C180.52,172.26,179.87,171.12,179.15,171.12Z" class="animable" style="fill:#263238;transform-origin:179.239px 173.72px"/><path id="el9emtloiiyzc" d="M177.9,173.76c0,.54.33,1,.69,1s.62-.47.6-1-.33-1-.69-1S177.87,173.21,177.9,173.76Z" class="animable" style="fill:#263238;transform-origin:178.544px 173.76px"/><path id="elh5im0fvv2cl" d="M178.18,174.73a19.45,19.45,0,0,0,2.82,4.55,3.19,3.19,0,0,1-2.59.61Z" class="animable" style="fill:#ed847e;transform-origin:179.59px 177.341px"/><path id="elt95s0noy01a" d="M175.77,170.82a.33.33,0,0,1-.21-.12.32.32,0,0,1,.06-.45,3.19,3.19,0,0,1,2.86-.63.34.34,0,0,1,.2.41.32.32,0,0,1-.41.2h0a2.56,2.56,0,0,0-2.26.52A.31.31,0,0,1,175.77,170.82Z" class="animable" style="fill:#263238;transform-origin:177.093px 170.168px"/><path id="elrluj0rvh7l" d="M178.81,181.6c0,.16-.05.31-.07.47a9.27,9.27,0,0,1-9.28,7.58,8.35,8.35,0,0,1-5.47-2.32c-3.54-3.29-3.62-7.23-4.33-13.91a9.16,9.16,0,0,1,12.2-9.7C178.38,166,179.82,175.49,178.81,181.6Z" class="animable" style="fill:#ffc3bd;transform-origin:169.349px 176.415px"/><path id="elqtuljkgjao" d="M161,184.33c2.48,2,13.24-1.67,12.43-9.89,0,0,4.5-3.95,4.86-9s-2.78-7.55-6.62-7.05c-3.38.45-3.57,2.23-3.57,2.23s-15.56-.6-13.27,6.13C147.5,172.51,157.87,181.85,161,184.33Z" class="animable" style="fill:#263238;transform-origin:165.29px 171.596px"/><g id="elnki9uyzirq"><rect style="fill:#263238;transform-origin:177.1px 174.03px;transform:rotate(-6.33deg)" width="7.46" height=".46" x="173.37" y="173.8" class="animable"/></g><path id="elni96xztanoo" d="M170.52,175.4a7.57,7.57,0,0,0,2.07,4.41c1.54,1.57,3,.5,3.23-1.49.16-1.79-.44-4.76-2.27-5.59S170.32,173.39,170.52,175.4Z" class="animable" style="fill:#ffc3bd;transform-origin:173.173px 176.53px"/><g id="el24bak8ibwpo"><path style="opacity:.2;transform-origin:174.135px 180.616px" d="M178.81,181.6c0,.16-.05.31-.07.47a9.27,9.27,0,0,1-9.28,7.58c1.85-1.18,4.36-3.23,5.13-6.1,1.27-4.74-.66-10.6-.66-10.6l1-1.37s1.78,7.6,1.57,9.6C176.39,182.55,177.85,182.05,178.81,181.6Z" class="animable"/></g><polygon id="el0o95l6gwmwf" points="211.13 218.17 203.65 218.17 202.29 204.87 212.49 204.87 211.13 218.17" class="animable" style="fill:#407bff;transform-origin:207.39px 211.52px"/><rect id="elnqcok3pm2g" width="11.3" height="1.34" x="201.74" y="204.08" class="animable" style="fill:#407bff;transform-origin:207.39px 204.75px"/><path id="elppv8zlaa1z" d="M210.76,211.12A2.77,2.77,0,1,1,208,207.9,3,3,0,0,1,210.76,211.12Z" class="animable" style="fill:#fff;transform-origin:208.013px 210.67px"/><g id="elcs5zahx9z0r"><rect style="fill:#fff;opacity:.8;transform-origin:207.39px 204.75px" width="11.3" height="1.34" x="201.74" y="204.08" class="animable"/></g><path id="elrfyuksrswxo" d="M162,184.89c1,5,1.19,8.78-2.28,12.09,0,0,1.36,5,10.56,5,10.12,0,4.83-5,4.83-5-5.52-1.32-5.38-5.42-4.41-9.26Z" class="animable" style="fill:#ffc3bd;transform-origin:168.106px 193.435px"/><path id="elt0koyb7e3pf" d="M157.76,197.9c-.74-1.38-1.56-3,.13-3.45,1.85-.54,13.76-1.55,17.26-.53-1.08,1.92.74,4.26.74,4.26Z" class="animable" style="fill:#407bff;transform-origin:166.393px 195.831px"/><g id="el4vmqd26pdnn"><path style="opacity:.2;transform-origin:166.393px 195.831px" d="M157.76,197.9c-.74-1.38-1.56-3,.13-3.45,1.85-.54,13.76-1.55,17.26-.53-1.08,1.92.74,4.26.74,4.26Z" class="animable"/></g><path id="elnhlpwglnl6i" d="M131.76,408.64a2.36,2.36,0,0,0,1.84-.1.71.71,0,0,0,.17-.81.8.8,0,0,0-.45-.52c-1-.48-3.3.46-3.4.5a.19.19,0,0,0-.11.16.18.18,0,0,0,.1.16A9.22,9.22,0,0,0,131.76,408.64Zm1.2-1.18a.65.65,0,0,1,.21.07.43.43,0,0,1,.26.3c.1.31,0,.41-.06.44-.4.34-1.88,0-2.92-.39A5.8,5.8,0,0,1,133,407.46Z" class="animable" style="fill:#407bff;transform-origin:131.82px 407.927px"/><path id="el1euku90s2e0i" d="M130,408H130c.83-.24,2.63-1.52,2.65-2.36a.58.58,0,0,0-.45-.57.94.94,0,0,0-.78.07c-1,.5-1.61,2.55-1.64,2.64a.2.2,0,0,0,0,.18A.18.18,0,0,0,130,408Zm2.1-2.62.07,0c.22.07.22.18.22.22,0,.5-1.2,1.5-2.07,1.9a4.27,4.27,0,0,1,1.35-2.08A.61.61,0,0,1,132.05,405.42Z" class="animable" style="fill:#407bff;transform-origin:131.204px 406.519px"/><path id="elcd0gomexr8i" d="M129.63,406.92l-8.14-1.77a.65.65,0,0,0-.72.37L118,411.64a1.09,1.09,0,0,0,.78,1.52c2.85.57,4.26.7,7.84,1.47,2.2.48,7.17,1.69,10.21,2.35s4.09-2.26,2.9-2.81c-5.31-2.42-7.53-4.56-9-6.55A1.79,1.79,0,0,0,129.63,406.92Z" class="animable" style="fill:#263238;transform-origin:129.056px 411.107px"/><path id="el908m68frt2f" d="M173.11,257.36s-7.68,47.91-11.89,65.87c-4.62,19.65-29.38,84.69-29.38,84.69l-12.12-2.43s17.32-53,21.19-80.48c3-21.11,8.84-67.65,8.84-67.65Z" class="animable" style="fill:#407bff;transform-origin:146.415px 332.64px"/><g id="elp2ge2nus16m"><path style="fill:#fff;opacity:.7;transform-origin:146.415px 332.64px" d="M173.11,257.36s-7.68,47.91-11.89,65.87c-4.62,19.65-29.38,84.69-29.38,84.69l-12.12-2.43s17.32-53,21.19-80.48c3-21.11,8.84-67.65,8.84-67.65Z" class="animable"/></g><path id="el92iclvnfub" d="M153.07,209.83c-1.31,1.45-2.78,3.11-4.12,4.73s-2.67,3.29-3.93,5a66.67,66.67,0,0,0-6.61,10.37c-.24.44-.43.88-.62,1.32l-.29.66-.14.33-.06.13h0c0-.09-.16.26-.06.88a15.53,15.53,0,0,0,2,4.71A83.51,83.51,0,0,0,146.79,248l-3.29,3.87a50.37,50.37,0,0,1-10.69-9.33,21.45,21.45,0,0,1-4.14-7,10.28,10.28,0,0,1-.27-5.71l.11-.41.09-.26.15-.45.31-.9c.2-.6.41-1.2.66-1.76a64.4,64.4,0,0,1,7-12.52c1.37-1.91,2.75-3.79,4.25-5.57s3-3.51,4.71-5.27Z" class="animable" style="fill:#ffc3bd;transform-origin:140.594px 227.28px"/><path id="elya73v2e3u3" d="M144.8,246l5,.37-2.25,7.49s-3.77-.68-5.22-3.62Z" class="animable" style="fill:#ffc3bd;transform-origin:146.065px 249.93px"/><polygon id="eln8ungttydm8" points="156.71 247.37 153.47 253.51 147.54 253.9 149.79 246.41 156.71 247.37" class="animable" style="fill:#ffc3bd;transform-origin:152.125px 250.155px"/><path id="eljl43uwpl3il" d="M178.16,409.89c1,0,1.87-.14,2.18-.56a.66.66,0,0,0,0-.77.87.87,0,0,0-.55-.41c-1.23-.34-3.82,1.14-3.93,1.2a.17.17,0,0,0-.09.18.18.18,0,0,0,.14.15A13.39,13.39,0,0,0,178.16,409.89Zm1.18-1.44a1.22,1.22,0,0,1,.34,0,.51.51,0,0,1,.34.24c.12.22.08.33,0,.39-.34.48-2.21.49-3.59.3A7.8,7.8,0,0,1,179.34,408.45Z" class="animable" style="fill:#407bff;transform-origin:178.116px 408.995px"/><path id="elolcjn13ak6m" d="M175.92,409.68H176c.89-.41,2.66-2,2.53-2.85,0-.19-.18-.44-.66-.49a1.33,1.33,0,0,0-1,.3c-.94.78-1.14,2.77-1.15,2.86a.17.17,0,0,0,.07.16A.19.19,0,0,0,175.92,409.68Zm1.81-3h.11c.31,0,.33.16.34.2.08.5-1.12,1.76-2,2.31a4.12,4.12,0,0,1,1-2.28A.91.91,0,0,1,177.73,406.68Z" class="animable" style="fill:#407bff;transform-origin:177.128px 408.008px"/><path id="elb3dd20lmpum" d="M175.14,408.65h-8.09a.65.65,0,0,0-.64.5L165,415.74a1.08,1.08,0,0,0,1.07,1.32c2.92-.05,7.13-.22,10.8-.22,4.29,0,8,.23,13,.23,3,0,3.88-3.07,2.61-3.35-5.8-1.27-10.53-1.41-15.54-4.5A3.44,3.44,0,0,0,175.14,408.65Z" class="animable" style="fill:#263238;transform-origin:179.008px 412.86px"/><path id="eltca113dose" d="M149.23,198.06c-6.51.15-14.89,15-14.89,15l10.52,12.07A27.74,27.74,0,0,0,154,214.2C157.84,206.33,155.88,197.91,149.23,198.06Z" class="animable" style="fill:#407bff;transform-origin:145.145px 211.594px"/><g id="eldk1c6cj2dcn"><path style="opacity:.2;transform-origin:149.51px 217.955px" d="M152.16,210.82c-4.07,2.65-6.42,8.5-7.77,13.74l.47.53A27.83,27.83,0,0,0,154,214.2q.34-.7.63-1.41Z" class="animable"/></g><path id="el1i51vtugu0y" d="M188.83,222c-.11,3.89-.38,8.39-.9,13.62-.45,4.63-1.1,9.82-2,15.64h-36c-.26-5,3.07-29.36-2.29-52.89A106.29,106.29,0,0,1,159.76,197a146,146,0,0,1,15.38,0,75.59,75.59,0,0,1,10.41,1.68S189.36,202.5,188.83,222Z" class="animable" style="fill:#407bff;transform-origin:168.26px 224.029px"/><g id="elw99wdpmzk0f"><path style="opacity:.2;transform-origin:185.127px 228.81px" d="M188.83,222c-.11,3.89-.38,8.39-.9,13.62-3-3.08-6.86-7.89-6.48-12Z" class="animable"/></g><g id="elnffkbqubpxp"><path style="opacity:.2;transform-origin:165.49px 298.436px" d="M168.26,274.43c-8.88,1.61-7.94,32.3-6.87,48.08,2.56-11.16,6.31-32.62,8.87-47.86A3.26,3.26,0,0,0,168.26,274.43Z" class="animable"/></g><path id="el8u2un5ksc4x" d="M186,257.36s.94,47.29.2,66.57c-.76,20.06-8.26,85.75-8.26,85.75H166.42s-.42-64.51-.93-84.22c-.56-21.48-3.33-68.1-3.33-68.1Z" class="animable" style="fill:#407bff;transform-origin:174.322px 333.52px"/><path id="elz1bu72eqetl" d="M188.72,205.67c.58,1.84,1.26,3.9,2,5.83s1.46,3.9,2.26,5.8a69.27,69.27,0,0,0,5.45,10.78c.52.82,1.07,1.6,1.63,2.34l.43.54a3.24,3.24,0,0,0-.63-.42,3.11,3.11,0,0,0-1.66-.33,2.43,2.43,0,0,0-1.12.34c-.32.24-.13.19,0,0a5.64,5.64,0,0,0,.68-.77,23.93,23.93,0,0,0,1.53-2.29c2-3.43,3.84-7.4,5.65-11.24l4.9,1.37A60.71,60.71,0,0,1,206.57,231a25.5,25.5,0,0,1-1.59,3.45,16,16,0,0,1-1.25,1.87,8.44,8.44,0,0,1-2.42,2.16,6.24,6.24,0,0,1-2.67.81,6.08,6.08,0,0,1-3.23-.7,7.29,7.29,0,0,1-1.88-1.46l-.64-.7q-1.26-1.4-2.34-2.85a66.51,66.51,0,0,1-7-12.19c-.93-2.1-1.82-4.21-2.58-6.35s-1.5-4.24-2.13-6.6Z" class="animable" style="fill:#ffc3bd;transform-origin:194.34px 222.486px"/><path id="elvhx0apb2b3" d="M174.82,206.15c-4.44,8.21,9.12,21,9.12,21l13.53-9.3a115.82,115.82,0,0,0-7.45-15C184.67,194,178.21,199.91,174.82,206.15Z" class="animable" style="fill:#407bff;transform-origin:185.698px 212.753px"/><path id="elvmdu5vuv31" d="M208.18,219.92l6.69-5.19-5.41-5s-5.19,3-4.46,7.84Z" class="animable" style="fill:#ffc3bd;transform-origin:209.9px 214.825px"/><polygon id="elh8cetvpadgj" points="216.04 211.46 212.41 206.44 209.46 209.68 214.87 214.73 216.04 211.46" class="animable" style="fill:#ffc3bd;transform-origin:212.75px 210.585px"/><g id="el6is1q2ecz15"><path style="fill:#fff;opacity:.7;transform-origin:174.322px 333.52px" d="M186,257.36s.94,47.29.2,66.57c-.76,20.06-8.26,85.75-8.26,85.75H166.42s-.42-64.51-.93-84.22c-.56-21.48-3.33-68.1-3.33-68.1Z" class="animable"/></g><path id="ele7aesxcp88d" d="M150.05,250a64.2,64.2,0,0,0-2.41,24.4h38.61l.18-24Z" class="animable" style="fill:#407bff;transform-origin:166.894px 262.2px"/><g id="eltwqftennaa"><path style="fill:#fff;opacity:.7;transform-origin:166.894px 262.2px" d="M150.05,250a64.2,64.2,0,0,0-2.41,24.4h38.61l.18-24Z" class="animable"/></g><polygon id="elo6j8i8c3c7d" points="158.85 250.9 149.39 250.79 149.14 253.25 158.85 253.34 158.85 250.9" class="animable" style="fill:#263238;transform-origin:153.995px 252.065px"/><polygon id="eluw6kfr11s1" points="174.89 251.09 160.31 250.92 160.31 253.35 174.89 253.49 174.89 251.09" class="animable" style="fill:#263238;transform-origin:167.6px 252.205px"/><polygon id="elhz4x5epjkb" points="175.92 251.1 175.92 253.5 186.43 253.59 186.43 251.22 175.92 251.1" class="animable" style="fill:#263238;transform-origin:181.175px 252.345px"/><g id="elo2ab35awk18"><path style="opacity:.2;transform-origin:167.735px 190.61px" d="M167.32,190.81a4.76,4.76,0,0,1,.83-.4C167.7,190.65,167.39,190.78,167.32,190.81Z" class="animable"/></g></g><defs><filter id="active" height="200%"><feMorphology in="SourceAlpha" operator="dilate" radius="2" result="DILATED"/><feFlood flood-color="#32DFEC" flood-opacity="1" result="PINK"/><feComposite in="PINK" in2="DILATED" operator="in" result="OUTLINE"/><feMerge><feMergeNode in="OUTLINE"/><feMergeNode in="SourceGraphic"/></feMerge></filter><filter id="hover" height="200%"><feMorphology in="SourceAlpha" operator="dilate" radius="2" result="DILATED"/><feFlood flood-color="red" flood-opacity=".5" result="PINK"/><feComposite in="PINK" in2="DILATED" operator="in" result="OUTLINE"/><feMerge><feMergeNode in="OUTLINE"/><feMergeNode in="SourceGraphic"/></feMerge><feColorMatrix type="matrix" values="0 0 0 0 0 0 1 0 0 0 0 0 0 0 0 0 0 0 1 0"/></filter></defs></svg>